<?xml version="1.0" encoding="UTF-8"?> <svg xmlns="http://www.w3.org/2000/svg" xmlns:xlink="http://www.w3.org/1999/xlink" id="Layer_1" version="1.1" viewBox="0 0 100 100"><defs><style> .st0 { fill: #2657a6; } .st1 { fill: #fff; } </style></defs><path class="st0" d="M53.5,5.2c1.7.4,3.5.5,5.3.8,17.5,3.4,31.8,17.7,35.2,35.2.3,1.7.4,3.6.8,5.3v7c-.4,1.7-.5,3.5-.8,5.3-3.3,16.7-16.3,30.4-32.8,34.7l-7.5,1.4c-2.4-.1-5.1.2-7.5,0-17-1.3-32.6-13.3-38.3-29.2C-2.2,37.6,16.7,7.9,46.1,5.4l.4-.2h7ZM45.7,6.5C16.5,8.8-1.7,40.6,9.9,67.3c12.7,29.5,52.8,35.7,73.5,10.9,25.3-30.2,1.6-74.8-37.6-71.7Z"></path><path class="st1" d="M45.7,6.5c39.2-3.1,62.9,41.5,37.6,71.7-20.7,24.8-60.7,18.6-73.5-10.9C-1.7,40.6,16.5,8.8,45.7,6.5Z"></path><path class="st0" d="M47.2,20.7c26.2-2.2,42.2,28,25.3,48.2-14,16.8-41.2,12.7-49.6-7.4-7.7-18.2,4.6-39.2,24.3-40.8ZM43.3,32.3h-2c0,.1-.7-2-.7-2l-1,1.9h-2.3c0,.1,1.7,1.8,1.7,1.8l-.5,2.1,1.7-1.2,1.8.9c-.6-2.3-.7-1.7.9-2.9.2-.2.5,0,.3-.6ZM53,32.3c-2.3,0-1.9.4-2.7-1.4s-.2-.6-.5-.6l-.5,1.9h-2.2c-.5.5,1.6,1.2,1.7,1.8l-.7,2.1,2.1-1.2,1.7,1.2-.5-2.1,1.7-1.6ZM60.2,32.3c-.2-.2,0-1.8-.8-2l-.5,2h-2.2c-.5.5,1.6,1.1,1.7,1.6l-.7,2.1,1.9-1.2,1.8,1.2-.5-2.1,1.7-1.7h-2.5ZM47.1,40.5h-20.5v18.9h1.8s.4-.6.4-.6l-.2-15.5c0-.2.3-.6.4-.6h18.2c.4,0,2,.8,2.4,1,4.7,2.8,4.5,10.1-.3,12.5-.4.2-2.1.9-2.4.9h-6.1v-9h-2.2v11.2h8.3c2,0,5.1-2.3,6.3-3.9l8.7-14.7c.1-.7-2-.4-2.4-.1l-4.6,7.2c-.5-3.6-4.2-7-7.8-7.5ZM71.9,57.2h-12.9v2.2h11.6c.6-.7,2.9-4,2.8-4.7l-8.4-13.9c-.4-.5-2.7-.5-2.7,0l9.7,16.3ZM66.4,54.2h-7.5v2.2h11.5l-8.3-13.7-9.8,16.7h2.9c0,0,6.8-12.2,6.8-12.2l.5.2,4,6.8ZM41.8,56.4h4.9c.2,0,1.9-.6,2.2-.8,4.5-2.3,4.5-9,0-11.4s-2-.8-2.2-.8h-17.1v7h8.2c0-.8.3-1.7-.4-2.2h-5.6v-2.5h14.6c1.5,0,3.4,2.1,3.6,3.6.4,3.5-2.8,5.3-6,4.8v-6h-2.2v8.2ZM37.8,51.5h-8.2v8h1.8s.4-.4.4-.4v-5.3h6v-2.2ZM40.5,64.2c-.6-.6-.7,1.8-1,1.9h-2.3c0,.1,1.7,1.5,1.7,1.5l-.5,2.1,1.9-1.2,1.9,1.2-.8-2.1,1.8-1.4h-2.2s-.5-2-.5-2ZM50.3,64.2c-.6-.6-.8,1.8-1,2h-2.2s1.7,1.4,1.7,1.4l-.7,2.1,2.1-1,1.6,1-.5-2.1,1.7-1.4h-2.2s-.5-2-.5-2ZM62.7,66.1c-2.3,0-1.9.4-2.7-1.4s-.2-.6-.5-.6l-.5,2h-2.2s1.7,1.6,1.7,1.6l-.7,1.9,1.9-1.2,1.9,1.2-.5-2.1,1.7-1.4Z"></path><path class="st0" d="M16.6,49.2l-1.8,1.4.4,2.1-1.7-1-1.6,1,.4-2-1.6-1.4,2.2-.2.5-2c.3,0,.4.4.5.6.8,1.8.4,1.4,2.7,1.4Z"></path><path class="st0" d="M86.6,47.2l.5,2,2.2.2-1.8,1.3.5,2.1c-1.6-1.1-1.9-1.1-3.5,0l.5-2.1-1.8-1.4h2.3c.3-.2.4-2.6,1-2Z"></path><path class="st1" d="M47.1,40.5c3.6.4,7.4,3.8,7.8,7.5l4.6-7.2c.3-.3,2.5-.6,2.4.1l-8.7,14.7c-1.2,1.6-4.3,3.9-6.3,3.9h-8.3v-11.2h2.2v9h6.1c.2,0,2-.7,2.4-.9,4.8-2.5,5-9.8.3-12.5-.5-.3-2-1-2.4-1h-18.2c-.1,0-.4.4-.4.6l.2,15.5-.4.6h-1.8s0-18.9,0-18.9h20.5Z"></path><path class="st1" d="M41.8,56.4v-8.2h2.2v6c3.1.5,6.4-1.4,6-4.8s-2.1-3.6-3.6-3.6h-14.6v2.5h5.6c.7.5.3,1.5.4,2.2h-8.2v-7h17.1c.2,0,1.9.6,2.2.8,4.5,2.3,4.5,9.1,0,11.4s-2,.8-2.2.8h-4.9Z"></path><polygon class="st1" points="66.4 54.2 62.5 47.4 62 47.2 55.2 59.4 52.3 59.4 62.1 42.8 70.4 56.4 59 56.4 59 54.2 66.4 54.2"></polygon><path class="st1" d="M71.9,57.2l-9.7-16.3c0-.5,2.2-.5,2.7,0l8.4,13.9c.2.7-2.1,4-2.8,4.7h-11.6v-2.2h12.9Z"></path><polygon class="st1" points="37.8 51.5 37.8 53.7 31.8 53.7 31.8 59 31.4 59.4 29.6 59.4 29.6 51.5 37.8 51.5"></polygon><path class="st1" d="M53,32.3l-1.7,1.6.5,2.1-1.7-1.2-2.1,1.2.7-2.1c-.1-.6-2.2-1.2-1.7-1.6h2.2c0-.1.5-2,.5-2,.4,0,.4.4.5.6.8,1.8.4,1.4,2.7,1.4Z"></path><path class="st1" d="M60.2,32.3h2.5s-1.7,1.7-1.7,1.7l.5,2.1-1.8-1.2-1.9,1.2.7-2.1c0-.5-2.2-1.2-1.7-1.6h2.2s.5-2,.5-2c.7.1.6,1.8.8,2Z"></path><path class="st1" d="M43.3,32.3c.1.6-.1.4-.3.6-1.6,1.3-1.5.6-.9,2.9l-1.8-.9-1.7,1.2.5-2.1-1.7-1.7h2.3c0-.1,1-2,1-2l.7,2.1h2Z"></path><path class="st1" d="M50.3,64.2l.5,2h2.2s-1.7,1.4-1.7,1.4l.5,2.1-1.6-1-2.1,1,.7-2.1-1.7-1.4h2.2c.2-.2.5-2.6,1-2Z"></path><path class="st1" d="M40.5,64.2l.5,2h2.2s-1.8,1.4-1.8,1.4l.8,2.1-1.9-1.2-1.9,1.2.5-2.1-1.7-1.4h2.3c.3-.2.4-2.6,1-2Z"></path><path class="st1" d="M62.7,66.1l-1.7,1.4.5,2.1-1.9-1.2-1.9,1.2.7-1.9-1.7-1.6h2.2s.5-2,.5-2c.3,0,.4.4.5.6.8,1.8.4,1.4,2.7,1.4Z"></path><g><path class="st0" d="M20.4,37.9l-.7,1.5-7.2-3.2,2.3-5.1,1.2.6-1.6,3.6,1.6.7,1.4-3.2,1.2.6-1.4,3.2,3.1,1.4Z"></path><path class="st0" d="M16,29l1.8-2.5c.7-1,1.4-1.4,2.2-1.5,1,0,2,.3,3,1,1,.7,1.7,1.6,1.9,2.6.2.8,0,1.6-.7,2.6l-1.8,2.5-6.4-4.7ZM23.1,30.4c.7-1,.4-2-1-3-1.4-1-2.5-1-3.2,0l-.9,1.2,4.2,3.1.9-1.2Z"></path><path class="st0" d="M26.7,25.8l.7,1.5-1.2,1.1-3.1-7.8,1.3-1.2,7.3,4.1-1.3,1.1-1.4-.9-2.2,2ZM24.9,21.5l1.3,3,1.5-1.4-2.8-1.6Z"></path><path class="st0" d="M35.6,19.7v1.7c.1,0-1.4.6-1.4.6l-.5-8.4,1.7-.7,5.6,6.2-1.5.6-1.1-1.3-2.7,1.2ZM35.2,15l.3,3.2,1.9-.8-2.1-2.4Z"></path><path class="st0" d="M43.2,18.8l-1.6.3-1.4-7.8,3.4-.6c1.6-.3,2.7.4,2.9,2,.3,1.6-.4,2.8-1.9,3l-2,.4.5,2.8ZM43.9,14.4c.9-.2,1.2-.6,1-1.4-.1-.8-.6-1.1-1.5-.9l-1.5.3.4,2.3,1.5-.3Z"></path><path class="st0" d="M49.8,18h-1.6s.2-7.9.2-7.9h3.5c1.6.1,2.5,1,2.5,2.6,0,1.6-1,2.6-2.4,2.6h-2c0,0,0,2.8,0,2.8ZM51.4,13.9c.9,0,1.3-.3,1.3-1.2,0-.8-.4-1.2-1.2-1.2h-1.5s0,2.3,0,2.3h1.5Z"></path><path class="st0" d="M56.5,18.7l-1.6-.4,1.9-7.7,4.1,1c.7.2,1.1.5,1.3.9.3.5.3,1.1.2,1.7-.2.9-.8,1.4-1.8,1.6.9.7.9.8.4,3.1,0,.3,0,.5.2.7v.3c0,0-1.8-.4-1.8-.4,0-.4,0-.6,0-1.4,0-.1,0-.3.1-.5v-.3c.2-.6,0-1-.7-1.1l-1.8-.5-.8,3ZM59.5,14.8c.5.1.7.1.9,0,.2-.1.4-.4.5-.7,0-.4,0-.6,0-.8-.2-.2-.3-.3-.8-.4l-1.9-.5-.5,2,1.9.5Z"></path><path class="st0" d="M70.6,16.8c.3,1,.1,2.2-.5,3.3-.5,1-1.4,1.8-2.4,2.1-.9.3-1.9.2-2.9-.3s-1.6-1.2-1.9-2.2c-.3-1-.1-2.2.4-3.2.5-1,1.4-1.8,2.4-2.2.9-.3,1.9-.2,2.9.3,1,.5,1.6,1.2,1.9,2.2ZM64.8,17.3c-.8,1.5-.5,2.8.7,3.4,1.1.6,2.4,0,3.2-1.4.8-1.5.5-2.9-.6-3.5-1.2-.6-2.4,0-3.2,1.4Z"></path><path class="st0" d="M70.3,25.2l3.1-7.7,1.2,1.1-2.5,5.7,5.1-3.4,1.2,1.1-7.2,4.3-1-.9Z"></path><path class="st0" d="M75.8,28.8l2.6,3.4-1.1.8-3.6-4.7,6.2-4.8,3.5,4.5-1.1.8-2.5-3.2-1.4,1.1,2.3,3-1.1.8-2.3-3-1.6,1.3Z"></path><path class="st0" d="M85,30.4l1.3,2.8c.5,1.1.6,1.9.2,2.7-.4.9-1.2,1.6-2.3,2.1-1.1.5-2.2.7-3.1.4-.8-.2-1.4-.8-1.9-1.9l-1.3-2.8,7.1-3.3ZM80.4,36c.5,1.1,1.6,1.3,3.1.6,1.6-.7,2.1-1.6,1.6-2.8l-.6-1.3-4.7,2.2.6,1.3Z"></path></g><g><path class="st0" d="M14.7,69.4l-.8-1.4,6.9-3.8,2.7,4.8-1.2.7-1.9-3.4-1.6.9,1.7,3-1.2.7-1.7-3-3,1.7Z"></path><path class="st0" d="M23.8,69.4l2,2.3c.8.9,1.1,1.7.9,2.5-.2,1-.8,1.9-1.7,2.7-.9.8-2,1.2-2.9,1.3-.8,0-1.5-.4-2.3-1.3l-2-2.3,6-5.1ZM20.8,76c.8.9,1.8.8,3.2-.3,1.3-1.1,1.6-2.2.8-3.1l-1-1.1-3.9,3.4,1,1.1Z"></path><path class="st0" d="M25.7,80.4l-1.4.9-1.3-1,7-4.6,1.4,1.1-2.6,7.9-1.3-1,.6-1.6-2.3-1.8ZM29.5,77.8l-2.7,1.8,1.6,1.2,1.1-3.1Z"></path><path class="st0" d="M35.7,86.4l-1,1.3-1.6-.6,5.3-6.5,1.7.6v8.3c0,0-1.7-.6-1.7-.6v-1.7s-2.7-1-2.7-1ZM38.6,82.7l-2,2.6,1.9.7v-3.3Z"></path><path class="st0" d="M43.6,90.2l-1.6-.2,1-7.8,3.5.5c1.6.2,2.4,1.2,2.2,2.8-.2,1.6-1.3,2.5-2.7,2.3l-2-.3-.4,2.8ZM45.7,86.3c.9.1,1.3-.2,1.4-1,.1-.8-.2-1.2-1.1-1.3l-1.5-.2-.3,2.4,1.5.2Z"></path><path class="st0" d="M51.6,90.7h-1.6c0,.1-.5-7.8-.5-7.8l3.5-.2c1.6-.1,2.6.7,2.7,2.3.1,1.6-.7,2.7-2.2,2.8h-2c0,.1.2,2.9.2,2.9ZM52.8,86.4c.9,0,1.2-.5,1.2-1.3,0-.8-.5-1.1-1.3-1.1h-1.5c0,.1.2,2.5.2,2.5h1.5Z"></path><path class="st0" d="M59.6,89.6l-1.6.4-2.2-7.6,4.1-1.2c.6-.2,1.2-.2,1.6.1.5.3.8.8,1,1.4.3.9,0,1.7-.7,2.2,1.1.1,1.2.2,1.8,2.5,0,.3.2.5.5.5v.3c0,0-1.6.5-1.6.5-.3-.3-.4-.5-.6-1.2,0-.1,0-.3-.1-.5v-.3c-.3-.6-.6-.8-1.3-.6l-1.8.5.9,3ZM60.2,84.7c.4-.1.6-.2.8-.4.1-.2.2-.5,0-.9-.1-.4-.3-.6-.5-.7-.2,0-.4,0-.9,0l-1.9.5.6,2,1.9-.5Z"></path><path class="st0" d="M68.3,78.3c1,.3,1.9,1.1,2.5,2.2.5,1,.7,2.2.5,3.2-.2,1-.8,1.7-1.8,2.3-1,.5-1.9.7-2.9.4-1-.3-1.9-1.1-2.4-2.1s-.8-2.2-.5-3.2c.2-1,.9-1.7,1.8-2.3,1-.6,1.9-.7,2.9-.4ZM65.5,83.3c.8,1.5,2.1,2,3.2,1.3,1.1-.6,1.4-2,.6-3.4-.8-1.5-2.1-2-3.3-1.4-1.2.6-1.4,2-.6,3.5Z"></path><path class="st0" d="M75.7,81.3l-7.2-4.2,1.2-1.1,5.2,3.3-2.6-5.6,1.2-1.1,3.1,7.7-1,.9Z"></path><path class="st0" d="M79.9,75.1l2.6-3.4,1.1.8-3.6,4.7-6.3-4.8,3.5-4.5,1.1.8-2.5,3.2,1.4,1.1,2.3-3,1.1.8-2.3,3,1.6,1.2Z"></path><path class="st0" d="M77.6,67.2l1.3-2.8c.5-1.1,1.1-1.7,1.9-1.9.9-.2,2,0,3.1.4,1.1.5,1.9,1.3,2.3,2.2.3.8.3,1.6-.2,2.7l-1.3,2.8-7.1-3.4ZM84.8,67.2c.5-1.1,0-2-1.6-2.8-1.6-.7-2.6-.6-3.1.6l-.6,1.3,4.7,2.2.6-1.3Z"></path></g></svg> 