<?xml version="1.0" encoding="UTF-8"?> <svg xmlns="http://www.w3.org/2000/svg" xmlns:xlink="http://www.w3.org/1999/xlink" id="Layer_1" version="1.1" viewBox="0 0 100 100"><defs><style> .st0 { fill: #2657a6; } .st1 { fill: #fff; } .st2 { fill: #6e2b13; } .st2, .st3, .st4, .st5, .st6 { fill-rule: evenodd; } .st3 { fill: #29783c; } .st4 { fill: #2a2771; } .st5 { fill: #ef5023; } .st6 { fill: #96241f; } </style></defs><path class="st0" d="M53.5,5.2c1.7.4,3.5.5,5.3.8,17.5,3.4,31.8,17.7,35.2,35.2.3,1.7.4,3.6.8,5.3v7c-.4,1.7-.5,3.5-.8,5.3-3.3,16.7-16.3,30.4-32.8,34.7l-7.5,1.4c-2.4-.1-5.1.2-7.5,0-17-1.3-32.6-13.3-38.3-29.2C-2.2,37.6,16.7,7.9,46.1,5.4l.4-.2h7ZM45.7,6.5C16.5,8.8-1.7,40.6,9.9,67.3c12.7,29.5,52.8,35.7,73.5,10.9,25.3-30.2,1.6-74.8-37.6-71.7Z"></path><path class="st0" d="M45.6,6.5c39.2-3.1,62.9,41.5,37.6,71.7-20.7,24.8-60.7,18.6-73.5-10.9C-1.8,40.6,16.4,8.8,45.6,6.5Z"></path><path class="st1" d="M46.1,21.1c26.2-2.2,42.2,28,25.3,48.2-14,16.8-41.2,12.7-49.6-7.4-7.7-18.2,4.6-39.2,24.3-40.8Z"></path><path class="st1" d="M13.3,56.7l.5,2,2.2.2-1.8,1.3.5,2.1c-1.6-1.1-1.9-1.1-3.5,0l.5-2.1-1.8-1.4h2.3c.3-.2.4-2.6,1-2Z"></path><path class="st1" d="M86.7,56.7l.5,2,2.2.2-1.8,1.3.5,2.1c-1.6-1.1-1.9-1.1-3.5,0l.5-2.1-1.8-1.4h2.3c.3-.2.4-2.6,1-2Z"></path><g><path class="st1" d="M14.7,52.1v.7s-3.3.2-3.3.2v-2.3c-.1,0,.5,0,.5,0v1.6c0,0,.8,0,.8,0v-1.4c0,0,.5,0,.5,0v1.4c0,0,1.5,0,1.5,0Z"></path><path class="st1" d="M11.8,47.5c.3-.3.8-.4,1.3-.4.5,0,.9.2,1.2.5.3.3.4.7.4,1.1s-.2.8-.5,1.1c-.3.3-.8.4-1.3.4-.5,0-1-.2-1.3-.5-.3-.3-.4-.7-.4-1.1,0-.5.2-.8.5-1.1ZM13,49.6c.7,0,1.2-.3,1.2-.9,0-.5-.4-.9-1.1-1-.7,0-1.2.3-1.2.9,0,.6.4.9,1.1,1Z"></path><path class="st1" d="M12.3,43.8c.4-.2.8-.4,1.4-.3.5,0,.9.3,1.2.6.3.3.4.7.3,1.2s-.3.8-.6,1.1c-.4.2-.8.4-1.3.3-.5,0-.9-.3-1.2-.6-.3-.3-.4-.7-.3-1.2,0-.5.3-.8.6-1.1ZM13.3,46c.7,0,1.2-.2,1.3-.7,0-.5-.3-1-1-1.1-.7,0-1.2.2-1.3.7,0,.5.3,1,1,1.1Z"></path><path class="st1" d="M12.1,42.5l.3-1.3c.1-.5.3-.8.6-.9.4-.2.8-.2,1.3,0,.5.1.9.4,1.1.7.2.3.3.6.1,1.1l-.3,1.3-3.2-.8ZM15.1,41.9c.1-.5-.2-.8-.9-1-.7-.2-1.1,0-1.2.5v.6c-.1,0,2,.5,2,.5v-.6Z"></path><path class="st1" d="M14.9,36.5c-.3,0-.6,0-.7.5-.1.3,0,.6.2.7.2,0,.4,0,.6-.4l.3-.5c.3-.5.7-.7,1.2-.5.6.2.8.8.5,1.6-.3.8-.8,1.1-1.5.9l.2-.6c.3.1.6,0,.8-.5.1-.4,0-.7-.2-.8-.3,0-.4,0-.7.4l-.2.4c-.4.6-.7.7-1.2.6-.6-.2-.8-.8-.5-1.5.3-.8.8-1.1,1.4-.9l-.2.6Z"></path><path class="st1" d="M17.1,35.4l.5.5-.3.6-2.5-2.5.3-.7,3.5.4-.3.6h-.7c0,0-.5,1-.5,1ZM15.7,34l1,.9.4-.8-1.4-.2Z"></path><path class="st1" d="M19.2,32.8l-.3.6-2.9-1.7,1.2-2,.5.3-.8,1.4.7.4.7-1.3.5.3-.7,1.3,1.2.7Z"></path><path class="st1" d="M20.1,30.2l1-1.5.5.3-1.4,2-2.7-1.9,1.4-2,.5.3-1,1.4.6.4.9-1.3.5.3-.9,1.3.7.5Z"></path><path class="st1" d="M22.8,27.5l-.4.5-2.1-1.7-.6.8-.4-.4,1.7-2.1.4.4-.6.8,2.1,1.7Z"></path><path class="st1" d="M24.8,25.4l-.5.5-.9-.9-2.3-.7.5-.5,1.5.5-.6-1.5.5-.5.8,2.2.9.9Z"></path><path class="st1" d="M26.8,22.6l.2.7-.5.4-1.2-3.3.6-.5,3,1.9-.5.4-.6-.4-1,.8ZM26.1,20.7l.5,1.3.7-.5-1.2-.7Z"></path><path class="st1" d="M28.5,19.3l1.3,1.9-.6.4-1.8-2.8.6-.4,2.3,1.1-1.3-1.9.6-.4,1.8,2.8-.6.4-2.4-1.2Z"></path><path class="st1" d="M30.3,16.9l1.1-.6c.4-.2.8-.3,1.1-.2.4.2.7.5,1,.9.2.5.3.9.3,1.3,0,.3-.3.6-.7.8l-1.1.6-1.6-2.9ZM32.8,18.7c.5-.2.5-.7.2-1.3-.4-.6-.7-.8-1.2-.6l-.5.3,1,1.9.5-.3Z"></path><path class="st1" d="M36.7,15c-.1-.3-.4-.4-.8-.2-.3.1-.5.4-.4.6,0,.2.3.3.7.2h.5c.6-.2,1,0,1.2.4.2.6,0,1.2-.9,1.5-.8.3-1.4.1-1.7-.5l.6-.2c.2.3.5.4.9.2.4-.1.6-.4.5-.7,0-.3-.3-.3-.8-.2h-.5c-.7.2-1,0-1.2-.4-.2-.6,0-1.1.8-1.4.8-.3,1.3-.1,1.6.5l-.6.2Z"></path><path class="st1" d="M40,16.3l-.7.2-.8-2.6-1,.3-.2-.5,2.5-.8.2.5-.9.3.8,2.6Z"></path><path class="st1" d="M41.4,15.2v.7c0,0-.7.2-.7.2l.4-3.5.7-.2,1.8,3-.7.2-.4-.6-1.2.3ZM41.6,13.3v1.4c-.1,0,.7-.2.7-.2l-.7-1.2Z"></path><path class="st1" d="M44.4,13l.3,2.3h-.7c0,0-.4-3.2-.4-3.2h.7c0,0,1.6,2,1.6,2l-.3-2.2h.7c0,0,.4,3.2.4,3.2h-.7c0,0-1.6-2-1.6-2Z"></path><path class="st1" d="M47.1,11.7h1.3c.5,0,.8,0,1.1.3.3.3.4.7.4,1.3,0,.5-.1,1-.4,1.3-.2.3-.5.4-1,.4h-1.3s-.1-3.3-.1-3.3ZM48.4,14.4c.5,0,.8-.4.7-1.1,0-.7-.3-1.1-.8-1.1h-.6s0,2.2,0,2.2h.6Z"></path><path class="st1" d="M50.9,14.3l-.3.7h-.7s1.3-3.3,1.3-3.3h.8s1,3.4,1,3.4h-.7s-.2-.7-.2-.7h-1.2ZM51.7,12.4l-.5,1.3h.9s-.4-1.3-.4-1.3Z"></path><path class="st1" d="M54.1,15.2h-.7c0,0,.5-3.4.5-3.4l1.8.2c.3,0,.5.1.6.3.1.2.2.4.2.7,0,.4-.3.6-.7.7.4.2.4.3.3,1.3,0,.1,0,.2.1.3h0c0,.1-.7,0-.7,0,0-.2,0-.3,0-.6,0,0,0-.1,0-.2h0c0-.4,0-.5-.4-.6h-.8c0-.1-.2,1.2-.2,1.2ZM55.2,13.4c.2,0,.3,0,.4,0,0,0,.1-.2.2-.3,0-.2,0-.3,0-.4,0,0-.1-.1-.3-.1h-.8c0-.1-.1.7-.1.7h.8Z"></path><path class="st1" d="M57.4,12.3l1.3.3c.5.1.8.3.9.6.2.4.2.8,0,1.3-.1.5-.4.9-.7,1.1-.3.2-.6.3-1.1.1l-1.3-.3.8-3.2ZM58,15.3c.5.1.8-.2,1-.9.2-.7,0-1.1-.5-1.2h-.6c0-.1-.5,2-.5,2h.6Z"></path><path class="st1" d="M62.1,14.7c0-.3,0-.6-.5-.7-.3-.1-.6,0-.7.2,0,.2,0,.4.5.6l.5.3c.5.3.7.6.6,1.1-.2.6-.8.9-1.6.6-.8-.3-1.1-.8-1-1.5l.6.2c0,.3,0,.6.5.8.4.1.7,0,.8-.2,0-.3,0-.4-.4-.7l-.4-.2c-.6-.3-.8-.7-.6-1.1.2-.6.8-.8,1.5-.6.8.3,1.1.8.9,1.4l-.6-.2Z"></path><path class="st1" d="M64.6,17.4l-.5.5-.6-.3,2.5-2.5.7.3-.4,3.5-.6-.3v-.7c0,0-1-.5-1-.5ZM65.9,16l-.9,1,.8.4.2-1.4Z"></path><path class="st1" d="M70.4,17.5l-1.1,1.9c-.2.3-.4.5-.7.6-.3,0-.7,0-1-.2-.3-.2-.6-.5-.7-.8,0-.3,0-.6.1-.9l1.1-1.9.6.3-1.1,1.9c-.2.3-.1.6.2.8.4.2.6.2.8-.2l1.1-1.9.6.3Z"></path><path class="st1" d="M70.3,21.5l-.6-.4,1.6-2.3-.8-.6.3-.5,2.2,1.5-.3.5-.8-.6-1.6,2.3Z"></path><path class="st1" d="M72.9,21.5l-1,1.2-.5-.4,2.1-2.6.5.4-.8,1,1,.8.8-1,.5.4-2.1,2.6-.5-.4,1-1.2-1-.8Z"></path><path class="st1" d="M77.7,24.1c0,.4-.2.9-.6,1.2-.3.3-.8.5-1.2.6-.4,0-.8-.1-1.1-.5s-.5-.7-.5-1.1c0-.4.2-.9.6-1.2.4-.3.8-.6,1.2-.6.4,0,.8.1,1.1.5.3.3.5.7.5,1.1ZM75.4,23.6c-.5.5-.6,1.1-.2,1.5.4.4,1,.3,1.5-.2.5-.5.6-1.1.2-1.5-.4-.4-1-.3-1.5.2Z"></path><path class="st1" d="M76.7,27.4l-.4-.5,2.6-2.1,1.1,1.4c.2.2.3.4.2.6,0,.2-.2.5-.4.6-.3.3-.6.3-1,0,.1.4.1.5-.6,1.1-.1,0-.1.2-.1.3h0c0,0-.5-.5-.5-.5,0-.2.1-.2.4-.4,0,0,.1,0,.2-.1h.1c.2-.3.2-.4,0-.7l-.5-.6-1,.8ZM78.7,26.8c.1.2.2.2.3.2.1,0,.2,0,.4-.1.1,0,.2-.2.2-.3,0-.1,0-.2-.2-.3l-.5-.6-.7.5.5.6Z"></path><path class="st1" d="M78.6,29.9l-.4-.5,2.7-2,.4.5-2.7,2Z"></path><path class="st1" d="M79.8,31.6l-.4-.6,2.3-1.5-.5-.8.5-.3,1.4,2.2-.5.3-.5-.8-2.3,1.5Z"></path><path class="st1" d="M81.2,34.1l-.3-.6,1.1-.6,1.3-2,.4.7-1,1.3h1.6c0-.1.4.5.4.5h-2.3c0,0-1.1.6-1.1.6Z"></path><path class="st1" d="M86,37.8c-.2.4-.6.7-1.1.9-.4.2-1,.2-1.3,0-.4-.2-.7-.5-.8-.9-.2-.4-.2-.8,0-1.2.2-.4.6-.7,1-.9.5-.2,1-.2,1.4,0,.4.2.7.5.8.9.2.5.2.8,0,1.2ZM84.1,36.4c-.7.2-1,.7-.8,1.3.2.5.8.7,1.4.5.7-.3,1-.8.8-1.3-.2-.5-.8-.7-1.4-.4Z"></path><path class="st1" d="M83.7,40.4l-.2-.7,3.2-.9.6,2.2-.5.2-.4-1.6-.7.2.4,1.4-.5.2-.4-1.4-1.4.4Z"></path><path class="st1" d="M84.6,44.2v-.7c-.1,0,3.1-.6,3.1-.6v.7c.1,0-3.1.6-3.1.6Z"></path><path class="st1" d="M87.1,45.1l-2.3.3v-.7c0,0,3.2-.4,3.2-.4v.7c0,0-2,1.6-2,1.6l2.2-.3v.7c0,0-3.2.4-3.2.4v-.7c0,0,2-1.6,2-1.6Z"></path><path class="st1" d="M88.4,47.9v1.3c0,.5,0,.8-.3,1.1-.3.3-.8.4-1.3.4-.5,0-1-.1-1.3-.4-.3-.2-.4-.5-.4-1v-1.3s3.3-.1,3.3-.1ZM85.7,49.3c0,.5.4.8,1.1.7.7,0,1.1-.3,1.1-.8v-.6s-2.2,0-2.2,0v.6Z"></path><path class="st1" d="M85.1,51.8v-.7s3.3.1,3.3.1v.7s-3.3-.1-3.3-.1Z"></path><path class="st1" d="M85.7,53.1l-.6-.3v-.7c0,0,3.3,1.5,3.3,1.5v.8c0,0-3.5.8-3.5.8v-.7c0,0,.8-.2.8-.2v-1.2ZM87.5,53.9l-1.3-.6v.9c0,0,1.3-.3,1.3-.3Z"></path></g><g><path class="st1" d="M18.3,74.1l-1.5.5-1-1.3,7.7-2.6,1.1,1.4-4.4,6.8-1-1.3.9-1.4-1.8-2.3ZM22.6,72.6l-3,1.1,1.2,1.6,1.7-2.6Z"></path><path class="st1" d="M23.8,82.2l-1.2-1,4.7-6,2.7,2.1c1.3,1,1.4,2.2.5,3.4-1,1.2-2.3,1.5-3.4.6l-1.6-1.2-1.7,2.2ZM27.4,79.9c.7.5,1.2.5,1.7-.2.5-.6.4-1.1-.3-1.7l-1.2-.9-1.4,1.8,1.2.9Z"></path><path class="st1" d="M31.3,87l-1.4-.7,3.2-7,3.1,1.4c1.5.7,1.9,1.8,1.3,3.2-.7,1.4-1.9,1.9-3.2,1.3l-1.8-.8-1.1,2.5ZM34.3,84c.8.4,1.3.2,1.6-.5.3-.7.1-1.2-.6-1.6l-1.3-.6-1,2.1,1.3.6Z"></path><path class="st1" d="M39.8,90.1l-1.5-.3,1.5-7.5,4,.8c.6.1,1.1.4,1.4.8.3.4.4,1,.3,1.6-.2.9-.7,1.4-1.6,1.6.9.6.9.7.5,2.9,0,.3,0,.5.2.7v.3c0,0-1.7-.3-1.7-.3-.1-.4-.1-.6,0-1.3,0-.1,0-.3.1-.5v-.3c.2-.6,0-.9-.7-1.1l-1.8-.4-.6,3ZM42.5,86.2c.4,0,.7,0,.9,0,.2-.1.4-.4.4-.7,0-.3,0-.6-.1-.8-.2-.2-.3-.3-.8-.4l-1.9-.4-.4,2,1.9.4Z"></path><path class="st1" d="M53.4,84.2c.7.7,1.2,1.7,1.3,2.9,0,1.1-.3,2.2-.9,3-.6.8-1.5,1.2-2.6,1.2-1.1,0-2-.2-2.7-.9-.7-.7-1.2-1.7-1.2-2.9,0-1.1.3-2.2.9-3,.6-.7,1.5-1.2,2.5-1.2,1.1,0,2,.2,2.7.9ZM48.8,87.5c0,1.6,1,2.6,2.3,2.5,1.3,0,2-1.2,2-2.8,0-1.7-1-2.7-2.3-2.6-1.3,0-2,1.2-2,2.8Z"></path><path class="st1" d="M59.7,89.6l-4.7-6.6,1.5-.5,3.3,5v-6c-.1,0,1.4-.5,1.4-.5l-.3,8.1-1.3.4Z"></path><path class="st1" d="M67,85.2l3.6-2.1.7,1.1-5,2.9-3.9-6.6,4.8-2.8.7,1.1-3.4,2,.9,1.5,3.2-1.9.7,1.1-3.2,1.9,1,1.7Z"></path><path class="st1" d="M68.6,76.7l2.2-2.1c.8-.8,1.6-1.1,2.4-1.1.9.1,1.9.6,2.7,1.5.8.9,1.3,1.8,1.4,2.8,0,.8-.3,1.5-1.1,2.3l-2.2,2.1-5.3-5.5ZM75.2,79.2c.9-.8.7-1.8-.5-3-1.2-1.2-2.2-1.4-3-.6l-1,1,3.5,3.6,1-1Z"></path></g><g><path class="st4" d="M58.1,52.1h0c0,0,0,0,0,0h0ZM53.5,55.6c-1.6,0-.6-3.5-.3-4.3.3-.8,1.1-2.6,1.8-3.1.8-.6,1.7-.6,2.6-.5.2,0,1.1.2,1.3.3l-.3,1.7-.5,1.1c-.2.4-.7,1.2-.9,1.5l-1.1,1.4-1,1.1c-.3.3-1.1.8-1.6.8h0ZM58.1,52.1c0,.2-.2,1.2-.3,1.5,0,.5-.2,1-.3,1.4-.2,1,0,2.1,1.2,2.1,1.1,0,2.1-.7,2.8-1.3.2-.2.3-.3.6-.5,0,0,.4-.4.4-.5,0,0,.1-.7.1-.8l-.6.6s0,0,0,0c0,0,0,0,0,0-.3.3-.6.6-1,.8-.3.2-1,.7-1.4.5-.4-.3-.2-1.3,0-1.6,0-.3.1-.6.2-.8.3-1.4.6-2.8.9-4.2l.5-2.6c-.3,0-.6,0-.7,0-1.1,0-2.2-.1-3.2,0-.6,0-1.1.2-1.6.5-.4.2-.8.4-1.2.7l-.4.3c-.4.3-1,.9-1.3,1.3-.9,1.1-1.4,2.1-1.8,3.5-.2,1-.3,2.5.4,3.5.8,1.1,2,.7,3,0,.3-.2.5-.4.7-.5,0,0,0,0,.1-.1.3-.3.5-.5.8-.8l.5-.5c.5-.6,1.2-1.6,1.6-2.3,0,0,0-.1.1-.2h0Z"></path><path class="st4" d="M33,44.5h-1.7v-1h1.9c0-.2,0-.4,0-.6.3-1.4.3-2.3,1.2-3.5.7-.8,1.9-1.1,2.9-.8.2,0,.3.1.5.2l.5.2,1.4-1.4c-.1,0-.4,0-.5,0-1.7,0-3.2,0-4.7.9-1.7,1-2.9,2.8-3.3,4.7,0,.4,0,.3-.2.3h-2.3c-.1,0-.1,0-.1.1v.9h2.4c0,.1-.2.9-.2,1.1,0,.4-.1.7-.2,1.1-.3,1.5-.5,3.1-.8,4.6,0,.4-.1.8-.2,1.1,0,.4-.1.8-.2,1.2-.4,2-.6,4.9-2.9,5.1-.9.1-1.6-.1-2.3-.3l-.3.3c0,.1-.2.2-.3.4l-.5.6c0,0,0,0,0,.2,1.2,0,2.4.1,3.6-.3,0,0,.2,0,.3-.1.6-.2,1-.5,1.5-.9l.4-.4c.1-.2.3-.4.6-.7.1-.2.2-.3.3-.5.1-.2.2-.3.3-.5.9-1.6,1.4-3.7,1.8-5.4,0-.4.2-.9.3-1.3.2-1.3.5-2.7.8-4l.3-1.4h0Z"></path><path class="st5" d="M33,44.5h38.4s.4-1,.4-1h-7s-.3,0-.3,0c-.3,0-15.5,0-15.6,0h-14.6c-.3,0-.8,0-.9,0h-1.9v1h1.7Z"></path><path class="st5" d="M65,47.5c.3,0,.7,0,.9.2.4.4.2,1.2,0,1.7,0,.3-.1.7-.2,1l-.6,3c-.1.5-.5,2.6-.5,3,0,.6,0,1.2.4,1.6.4.4.7.5,1.3.5s1.8-.5,2.5-1l1.4-1.1c0,0,0-.7,0-.8-.1,0-.2.2-.4.3-.5.4-.6.6-1.2.9-.3.2-1.1.6-1.5.2-.3-.4-.2-1.1,0-1.6l2.1-10.1c-.1,0-.3.1-.5.2-.8.3-1.6.5-2.4.8l-2.4.8c-.3,0-.4,0-.4.2,0,.7,0,.7.2.6,0,0,.2,0,.3,0,.2,0,.9-.2,1.1-.2h0Z"></path><path class="st4" d="M43.4,49.5c0,.8.3,1.4.7,1.8l1.4,1.6c.2.3.4.4.6.8.5,1,.2,2-.9,2.2-.3,0-.5,0-.7,0-.4,0-.9-.2-1.3-.3-.5-.2-.6-.3-1.1-.5,0,.1-.7.7-.8.8l-.5.5c.2.1,1,.3,1.2.4,1.6.3,3.1.2,4.4-.7.3-.2.7-.6.9-.9.1-.2.2-.3.3-.6.3-.8.1-1.7-.4-2.4l-1.6-2c-.2-.2-.5-.5-.6-.8-.2-.3-.3-.6-.3-1.1,0-.8,1-1.2,1.6-1.2s.6,0,.8.1c.4.2.9.5.9,1s0,.3,0,.5h.6c0-.1.2-.8.3-1l.2-1.1c-.2,0-.4-.2-.9-.3-1-.2-2,0-3,.3-.3.2-.8.4-1.1.7l-.2.2c-.4.5-.8,1-.8,1.7h0Z"></path><path class="st4" d="M34.8,49.6c0,.5.2,1.1.5,1.5l1.2,1.3c0,0,0,0,.1.1l.6.7c.3.3.6.9.6,1.4s-.1.9-.5,1.1c-.9.7-2.2.2-3.1-.2-.1,0-.2,0-.3-.2,0,0-.2-.1-.3-.2l-.9,1c-.1.2-.3.2-.3.4.1,0,.2,0,.3,0,0,0,.2,0,.3,0,1.6.5,3.7.5,5-.5.3-.3.6-.5.9-.9.7-1,.6-2.1-.1-3l-2-2.5c0-.1-.1-.2-.2-.3-.1-.3-.2-.5-.2-.9,0-1.8,3.4-1.9,3.4-.1s0,.3,0,.4c.7,0,.6,0,.7-.2,0,0,0-.2,0-.3,0-.2.3-1.5.4-1.6-.5-.3-1.3-.4-2-.4-1.1,0-2.4.5-2.9,1.1,0,0-.1.1-.2.2,0,0,0,0,0,.1-.3.4-.6.8-.7,1.3,0,.1,0,.3,0,.4h0Z"></path><path class="st3" d="M66.4,42.6c-.1.2-.5.4-.8.5-.2,0-.6.2-.8.2-.1,0-.2,0-.3,0,0,0,0,.1,0,.2h.3c0,0,.8,0,1.4-.5.4-.3,0-.2.5-.2.1,0,.2,0,.3,0,2-.4,2.8-3,2.8-4.9v-.7c0-.2,0-.6,0-.8h0c0,.3-.6,1.2-.8,1.5-1.3,1.4-3.2,2.8-2.8,4.8h0Z"></path><path class="st6" d="M66.2,41.9h0Z"></path><path class="st2" d="M65,41c.5,0,.9.4.9.9s-.4.9-.9.9-.9-.4-.9-.9.4-.9.9-.9h0Z"></path><path class="st3" d="M68.5,59.3l-.5,1H23.1v-.2c2.3.2,3.9-.2,4.9-.8h40.6Z"></path></g></svg> 