<?xml version="1.0" encoding="UTF-8"?> <svg xmlns="http://www.w3.org/2000/svg" id="Layer_1" version="1.1" viewBox="0 0 100 100"><defs><style> .st0 { font-family: Oswald-SemiBold, Oswald; font-size: 7.6px; font-weight: 600; } .st0, .st1 { fill: #fff; } .st2 { fill: #169c4a; } </style></defs><path class="st2" d="M80.6,17.2c23.8,22.1,16.6,61.8-13.3,74.2C33.3,105.4-2.2,74.8,6.5,39.1,14.6,6.1,55.7-6,80.6,17.2ZM20.2,81.1c22.7,21.9,61,12.3,70.8-17.6C102.1,29.4,69.2-2.7,35.4,9.4,5.5,20.2-2.8,58.9,20.2,81.1Z"></path><path class="st1" d="M20.2,81.1C-2.8,58.9,5.5,20.2,35.4,9.4c33.8-12.2,66.7,20,55.6,54.1-9.7,29.8-48.1,39.5-70.8,17.6ZM51,9.8h-1.3c0,1.5.4,3.7.2,5.1-.2,1.1-2.4,1.2-2.8-.2s0-4.5-.2-4.7l-1.3.2c.4,3-.9,7.3,3.7,6.7s1.5-4.9,1.8-7ZM58.2,10.6l-4.7-.7c0,2-.8,4.2-.8,6.1,0,.2,0,.5.2.7h1s.5-2.7.5-2.7l2.8.3.2-1-2.8-.3.2-1.8,3.3.5.2-1ZM43,10.4l-1.2.3,1,4.4c-1.1-.6-2.8-3.2-3.7-3.6-.5-.2-1,.1-1.5,0l1.7,6.7,1.1-.4-1-4.2,3.7,3.6,1.3-.4-1.5-6.4ZM63,11.9c-.5-.2-1-.6-1.6-.2l-4.2,5.5c1.4.7,1.4,0,2.2-.9.4.2.9.3,1.4.4,1.7.6,1.2.4,1.5,2.1l1.2.4-.5-7.3ZM38.6,18.6c.2-.2-.4-.7-.6-.8-1.5-1.4-3.2-2.7-4.6-4.3l-1.4.6.6,7.2,1.1-.6v-1.6c0,0,2.4-1.2,2.4-1.2l1.2,1,1.2-.3ZM70.6,15.3c-3.7-2.9-7.5,2.8-4.9,5.3,1,1,3,1.2,4,.2.2-.3-.5-.9-.7-1.2-1.3,1.4-3.2.6-2.9-1.4.4-2.6,3.8-3.9,4-.6l1.3.4c0-.9-.2-2-.9-2.6ZM32.1,21.8l-4.2-5.5c-.3.4-1.4.9-1.4,1.4s1.9,3.9,1.6,4.3l-3.8-2.8-1.5,1,4.1,5.5.9-.7-3.1-4.1,4.2,3.1c.4.2,1.2-.3,1.1-.8-.2-1.3-1.8-3.3-2-4.8l3.2,3.9,1-.4ZM74.7,19.4l-3.7,4.6.9.7,3.8-4.3,1.5,1.3c.1,0,.8-.9.4-1.1l-3.6-3c-.3-.4-1.1.5-.9.7l1.5,1ZM70.4,29.2c-15.7-15.3-42.1-8.6-48.3,12.4-6.3,21.4,12.5,41.4,34.2,36.7,22.5-4.8,30.6-33,14.1-49.2ZM75.4,25.6c-1.1,1.3-.2,3.1,1,4,1,.7,1.6.6,2.5,0,.8-.5,2.8-2.1,3.4-2.7s.3-.2.3-.4l-.8-.9c-1.3.7-4.2,4.6-5.5,2.5-1.2-2,2.7-3.4,3.7-4.7l-.8-.9-4,3.2ZM19.1,25.5c-1.4.2-2.7,2.3-3.3,3.5l5.4,3.9c.8-1.3,2.5-2.9,2.2-4.5-.3-1.5-2.8-3.2-4.3-3ZM85.8,34.2c1.3-1.4-1-4-1.5-5.4l-5.9,3.3.4,1.1,2.7-1.3c.9,1.5-.5,2.8-1.1,4.1l.6,1.4c.8-1,1.3-2.2,1.7-3.3.6,1,2.3,1.2,3,.3ZM18.6,38.2c.1-.1.7-.9.8-1.1.9-1.7.4-3.6-1.3-4.5-4.6-2.4-7.1,3.3-3.8,5.5,1.2.8,3.2,1.1,4.3.1ZM87.7,35.8l-6.5,2.2c0,0,.4,1.3.6,1.3l6.3-2.3-.3-1.2ZM88.8,39.1c-.8,0-6.4,1-6.6,1.3s-.1.9.4,1c1,.2,2.9-.9,4.1-.7-.6.9-3.7,3-3.7,3.9s.2.6.2.9l6.6-1.3-.2-1.2-4.3.8c0-.3,0-.3.2-.5.6-.7,3-2.5,3.3-3.2s0-.8-.1-1.1ZM11.2,40.7c-1.4,1.9-.9,4.5,1.4,5.4,5.3,1.8,6.8-5.4,2-6.3-1.1-.2-2.7,0-3.4,1ZM84.3,53.1h2.8v-2.8h-1.2s.2,1.5.2,1.5c-.3,0-.9.1-1.1,0s-.5-1.3-.5-1.6c0-1.9,1.7-2.3,3.3-2.1,1.8.3,2.4,2.9.6,3.6l.2,1.2c3.1-.6,2.4-5.6-.6-6.1-4.2-.7-5.6,3.2-3.5,6.3ZM15.7,47.8h-2.8l.2,2.8h1s.2-1.6.2-1.6c.9,0,.9,0,1.3.8,1.4,3.7-4.9,4.1-4.8.9,0-1.3,1.5-1.3.8-2.8-2.7.7-2.4,5,0,5.9,4.2,1.7,6.9-2.9,4.1-6.1ZM83.8,65.3v-2.5l-1.4,2-2.5-.7,1.3,1.9-1.2,1.9,2.1-.6,1.6,1.8v-2.3l2.3-.8-2.3-.8ZM20,64.1l-2.2.6-1.4-1.8-.2,2.3-2.2.7,2.3,1v2.3c0,0,1.4-1.8,1.4-1.8l2.4.7-1.3-2.1,1.3-1.9ZM31.9,80.2c.7-.6.9-1.7.6-2.6s-3-2.5-3.3-2.5l-3.9,5.6,1.2.4,1.3-1.9c1.3.6,2.7,2.2,4.2,1ZM69.2,79.5l-.8-1.2,2.9-2.1c.2-.3-.3-.8-.5-1l-4.1,2.9c1.3,1.3,2.4,4,3.7,5.2.1.1.2.3.4.2.5-.3,4.1-2.6,4.1-2.9s-.5-.8-.7-.7c-.9.7-1.8,1.4-2.7,2-.1,0-.2.3-.4,0-.2-.4-1.2-1.4-1-1.7l2.6-1.7c.2-.3-.3-.8-.5-1l-2.9,2ZM38.1,83.1c.2-.2.5-1,.6-1.2.2-2.1-3.2-2.5-4.4-3.4l-2.7,5.6c-.3.8.4,1,1.1,1l1-2.5c1.9.3,1.4,2.6,1.9,4l1.3.5-.7-3.7c.6.3,1.5,0,1.9-.4ZM66.7,80.3c.4-.5-1.6-1.2-2.1-1.1-.5,0-1.4.4-1.8.7-2.7,1.9-.5,7.3,3.1,6.3,1.6-.5,2.3-1.6,2.1-3.3l-1.3.2c.4,1.7-1.4,3-2.8,1.7-.9-.9-1.7-3.2-.5-4,1.4-.9,1.9.7,3.2-.3ZM59.8,81.1l-1.3.2,1.7,6.3c.3.4,1,0,1.4,0l-1.8-6.5ZM43.5,81.8l-1.5-.3-4,6.2c1.5.4,1.5-.1,2.3-1.1l2.7.5.2,1.8,1.3.4-1-7.3ZM57.8,81.6l-5.3.8.2,1,2.2-.2.8,5.7,1.2-.2-.8-5.8,2-.2-.2-1.2ZM52,84.5c-.2-2-2.7-2.6-4.3-1.7s-1.7,2.4-1.5,3.8c.3,3.3,5,4.1,5.8.8l-1.1-.3c-1.7,2.8-3.9,1-3.4-1.9s2.7-2.3,3.3-.5l1.1-.2Z"></path><path class="st2" d="M70.4,29.2c16.5,16.1,8.4,44.4-14.1,49.2-21.7,4.6-40.5-15.4-34.2-36.7,6.2-21,32.6-27.8,48.3-12.4Z"></path><path class="st2" d="M63,11.9l.5,7.3-1.2-.4c-.3-1.7.1-1.6-1.5-2.1s-.9-.2-1.4-.4c-.8.9-.9,1.6-2.2.9l4.2-5.5c.5-.4,1.1,0,1.6.2ZM61.8,13.3c-.4,0-.3,0-.4.2-.3.5-1,1.2-1.2,1.6-.3.6,1.4.8,1.8.8l-.2-2.7Z"></path><polygon class="st2" points="83.8 65.3 86.2 66 83.8 66.8 83.8 69.1 82.3 67.3 80.2 68 81.3 66 80 64.1 82.5 64.8 83.8 62.8 83.8 65.3"></polygon><polygon class="st2" points="20 64.1 18.7 66 20 68.1 17.6 67.4 16.1 69.3 16.2 67 14 66 16.1 65.2 16.3 63 17.7 64.8 20 64.1"></polygon><g><path class="st2" d="M38.1,83.1c-.4.5-1.4.7-1.9.4l.7,3.7-1.3-.5c-.5-1.4,0-3.7-1.9-4l-1,2.5c-.7,0-1.4-.2-1.1-1l2.7-5.6c1.3.9,4.6,1.3,4.4,3.4,0,.2-.4,1-.6,1.2ZM37.1,81c-.4-.5-1.7-.7-2.3-1l-.7,1.8c.7,0,1.7.9,2.4.8s1-1,.6-1.6Z"></path><path class="st2" d="M69.2,79.5l2.9-2c.2.2.7.7.5,1l-2.6,1.7c-.2.3.8,1.4,1,1.7.2.2.3,0,.4,0,.9-.6,1.8-1.3,2.7-2,.2,0,.7.7.7.7,0,.3-3.6,2.6-4.1,2.9-.2,0-.3-.1-.4-.2-1.3-1.2-2.4-3.9-3.7-5.2l4.1-2.9c.2.2.7.7.5,1l-2.9,2.1.8,1.2Z"></path><path class="st2" d="M43.5,81.8l1,7.3-1.3-.4-.2-1.8-2.7-.5c-.8,1-.8,1.6-2.3,1.1l4-6.2,1.5.3ZM42.5,83.3c-.4,0-.3,0-.4.2-.3.4-.9,1.3-1.1,1.7s-.3.1,0,.3l1.8.4-.3-2.7Z"></path><path class="st2" d="M31.9,80.2c-1.5,1.2-2.9-.3-4.2-1l-1.3,1.9-1.2-.4,3.9-5.6c.3,0,3.1,2.1,3.3,2.5.3.8,0,2-.6,2.6ZM31.1,77.7c-.1-.2-1.3-.9-1.5-.9l-1.1,1.6c.6.4,1.4,1.3,2.2,1.1s.8-1.2.4-1.8Z"></path><path class="st2" d="M52,84.5l-1.1.2c-.7-1.8-3-1.5-3.3.5-.5,2.9,1.7,4.7,3.4,1.9l1.1.3c-.8,3.4-5.5,2.5-5.8-.8s.2-3,1.5-3.8,4.1-.3,4.3,1.7Z"></path><path class="st2" d="M66.7,80.3c-1.3,1.1-1.9-.6-3.2.3-1.2.8-.4,3.2.5,4,1.3,1.3,3.1,0,2.8-1.7l1.3-.2c.2,1.6-.5,2.8-2.1,3.3-3.6,1.1-5.8-4.4-3.1-6.3.4-.3,1.4-.7,1.8-.7.4,0,2.4.6,2.1,1.1Z"></path><polygon class="st2" points="57.8 81.6 58 82.8 56 83 56.8 88.8 55.7 89 54.8 83.3 52.7 83.5 52.5 82.5 57.8 81.6"></polygon><path class="st2" d="M59.8,81.1l1.8,6.5c-.4,0-1.1.4-1.4,0l-1.7-6.3,1.3-.2Z"></path></g><polygon class="st1" points="48.8 36.9 50.1 51.4 51.6 36.9 59.7 36.9 60 37.2 60 60.1 54.2 60.1 54.5 45.6 52.6 60.1 47.6 60.1 45.9 45.4 45.9 60.1 40.3 60.1 40.3 36.9 48.8 36.9"></polygon><path class="st1" d="M38.8,46.3h-6v-3.9c0-.6-1-1.2-1.5-.5l-.2,13.2c.2,1,1.7.6,1.7.2v-3.9h-.8v-3.8h6.8v12.7h-4.8l-.6-2.5c-1.1,3.9-6.4,3.6-7.8.1-1-2.5-.8-10.6-.6-13.5.3-5.6,2.7-7.9,8.4-7.4,2.4.2,5.4,2,5.4,4.8v4.8Z"></path><path class="st1" d="M67.7,54.1v5.8l-.3.3h-5.8v-23.2h8.6c1.7,0,3.8,1.6,4.6,3.1,1.1,2.3,1,8.7-.2,11-.7,1.4-2.7,3.1-4.4,3.1h-2.6ZM67.7,49.1c.7,0,1.3-.1,1.6-.9s.2-4.6,0-5.3-.8-1.1-1.6-1v7.2Z"></path><path class="st1" d="M54.3,28.4c0,.3-.1.3-.3.5-.4.3-2.1,1.4-2.2,1.6l.8,3.1-2.6-1.8-2.7,1.8.9-2.9c0-.4-1.8-1.4-2.2-1.8s-.4-.1-.3-.5h3.1c.3-.1.9-3.3,1.2-3l1.1,3h3.1Z"></path><path class="st1" d="M43.5,30.4l-1.8,1.5.6,2.2-1.8-1.3-1.9,1.3.5-2.2c0-.2-1.2-.8-1.4-1.1s-.3,0-.2-.4h2.2c0,0,.7-2,.7-2,.4,0,.2.2.3.4.2.5.4,1.1.5,1.6h2.3Z"></path><path class="st1" d="M62.7,30.4l-1.8,1.5.6,2.2-1.9-1.3-1.7,1.3.5-2.2-1.6-1.4,2.2-.2.7-1.9c.4,0,.3,0,.3.2.2.5.4,1.2.5,1.8h2.3Z"></path><path class="st1" d="M84,30.4c.1.8,1.6,2,.8,2.8-1.2,1.2-2-1.1-2.4-1.9l1.7-.9Z"></path><path class="st1" d="M37.1,81c.5.5.1,1.5-.6,1.6s-1.7-.8-2.4-.8l.7-1.8c.5.3,1.9.6,2.3,1Z"></path><path class="st1" d="M12.9,41c1.4-.3,3.6.4,3.5,2.2-.1,3-6,2-4.8-1.1.2-.5.7-1,1.2-1.1Z"></path><path class="st1" d="M17.3,28.8c.7-2.4,2.6-2.6,4.3-.9,1.4,1.3.4,2.2-.6,3.4l-3.8-2.5Z"></path><path class="st1" d="M14.4,33.8c1.4-1.6,5.7.5,4,2.9-1.4,2.1-6.1-.6-4-2.9Z"></path><path class="st1" d="M42.5,83.3l.3,2.7-1.8-.4c-.3-.2,0-.2,0-.3.2-.4.8-1.3,1.1-1.7s0-.3.4-.2Z"></path><g><path class="st2" d="M32.1,21.8l-1,.4-3.2-3.9c.2,1.5,1.8,3.5,2,4.8s-.7,1-1.1.8l-4.2-3.1,3.1,4.1-.9.7-4.1-5.5,1.5-1,3.8,2.8c.3-.4-1.6-3.6-1.6-4.3s1.1-1,1.4-1.4l4.2,5.5Z"></path><path class="st2" d="M43,10.4l1.5,6.4-1.3.4-3.7-3.6,1,4.2-1.1.4-1.7-6.7c.5,0,1-.3,1.5,0,.9.4,2.6,3,3.7,3.6l-1-4.4,1.2-.3Z"></path><path class="st2" d="M85.8,34.2c-.8.9-2.4.7-3-.3-.4,1.2-.9,2.4-1.7,3.3l-.6-1.4c.6-1.3,2-2.6,1.1-4.1l-2.7,1.3-.4-1.1,5.9-3.3c.6,1.4,2.8,4,1.5,5.4ZM84,30.4l-1.7.9c.4.9,1.2,3.1,2.4,1.9.8-.8-.6-2-.8-2.8Z"></path><path class="st2" d="M88.8,39.1c0,.4.3.7.1,1.1-.3.7-2.7,2.5-3.3,3.2s-.3.2-.2.5l4.3-.8.2,1.2-6.6,1.3c0-.3-.2-.6-.2-.9,0-.9,3.1-3,3.7-3.9-1.2-.2-3.1.8-4.1.7s-.6-.7-.4-1,5.8-1.2,6.6-1.3Z"></path><path class="st2" d="M84.3,53.1c-2.2-3.1-.7-7,3.5-6.3,3,.5,3.7,5.5.6,6.1l-.2-1.2c1.8-.7,1.2-3.3-.6-3.6-1.6-.2-3.3.1-3.3,2.1,0,.3.4,1.5.5,1.6.2.1.8,0,1.1,0l-.2-1.5h1.2v2.8h-2.8Z"></path><path class="st2" d="M11.2,40.7c.7-1,2.3-1.2,3.4-1,4.8.9,3.3,8.1-2,6.3-2.4-.8-2.8-3.4-1.4-5.4ZM12.9,41c-.6.1-1,.6-1.2,1.1-1.2,3.1,4.7,4.1,4.8,1.1s-2.1-2.5-3.5-2.2Z"></path><path class="st2" d="M19.1,25.5c1.5-.2,4,1.4,4.3,3,.3,1.6-1.3,3.2-2.2,4.5l-5.4-3.9c.6-1.2,1.9-3.3,3.3-3.5ZM17.3,28.8l3.8,2.5c1-1.2,1.9-2.1.6-3.4-1.7-1.7-3.6-1.5-4.3.9Z"></path><path class="st2" d="M18.6,38.2c-1.1.9-3.2.6-4.3-.1-3.3-2.2-.7-7.9,3.8-5.5,1.8.9,2.2,2.8,1.3,4.5-.1.2-.7,1-.8,1.1ZM14.4,33.8c-2.1,2.4,2.6,5.1,4,2.9,1.6-2.5-2.6-4.6-4-2.9Z"></path><path class="st2" d="M15.7,47.8c2.8,3.2,0,7.8-4.1,6.1-2.4-1-2.7-5.2,0-5.9.7,1.5-.8,1.5-.8,2.8-.1,3.2,6.2,2.8,4.8-.9s-.4-.8-1.3-.8l-.2,1.6h-1s-.2-2.8-.2-2.8h2.8Z"></path><path class="st2" d="M38.6,18.6l-1.2.3-1.2-1-2.5,1.2v1.6c0,0-1.1.6-1.1.6l-.6-7.2,1.4-.6c1.4,1.5,3.1,2.8,4.6,4.3.1.1.7.7.6.8ZM35.3,17.3c.2-.3-1.7-1.9-2-2.2l.2,2.8,1.8-.7Z"></path><path class="st2" d="M51,9.8c-.3,2.1,1.4,6.5-1.8,7-4.6.7-3.3-3.7-3.7-6.7l1.3-.2c.2.2,0,4,.2,4.7.3,1.5,2.6,1.4,2.8.2.3-1.4-.1-3.6-.2-5.1h1.3Z"></path><path class="st2" d="M75.4,25.6l4-3.2.8.9c-1,1.3-4.9,2.7-3.7,4.7,1.3,2.2,4.2-1.8,5.5-2.5l.8.9c0,.2-.2.3-.3.4-.6.6-2.7,2.3-3.4,2.7-1,.6-1.6.7-2.5,0-1.2-.9-2.1-2.6-1-4Z"></path><path class="st2" d="M70.6,15.3c.7.6,1,1.7.9,2.6l-1.3-.4c-.2-3.3-3.6-2-4,.6-.3,2,1.6,2.8,2.9,1.4.2.3.9.8.7,1.2-1,1.1-3,.8-4-.2-2.6-2.5,1.1-8.2,4.9-5.3Z"></path><path class="st2" d="M58.2,10.6l-.2,1-3.3-.5-.2,1.8,2.8.3-.2,1-2.8-.3-.5,2.7h-1c-.2-.1-.2-.4-.2-.6,0-1.9.8-4.1.8-6.1l4.7.7Z"></path><path class="st2" d="M74.7,19.4l-1.5-1c-.2-.2.6-1.1.9-.7l3.6,3c.4.2-.3,1.1-.4,1.1l-1.5-1.3-3.8,4.3-.9-.7,3.7-4.6Z"></path><path class="st2" d="M87.7,35.8l.3,1.2-6.3,2.3c-.2,0-.6-1.2-.6-1.3l6.5-2.2Z"></path><path class="st1" d="M61.8,13.3l.2,2.7c-.4,0-2.1-.2-1.8-.8.2-.4.9-1.1,1.2-1.6s0-.3.4-.2Z"></path></g><path class="st1" d="M35.3,17.3l-1.8.7-.2-2.8c.3.2,2.2,1.9,2,2.2Z"></path><path class="st1" d="M31.1,77.7c.4.5.3,1.6-.4,1.8s-1.6-.6-2.2-1.1l1.1-1.6c.2,0,1.4.7,1.5.9Z"></path><text class="st0" transform="translate(35.3 69.5)"><tspan x="0" y="0">CERTIFIED</tspan></text></svg> 