<?xml version="1.0" encoding="UTF-8"?> <svg xmlns="http://www.w3.org/2000/svg" xmlns:xlink="http://www.w3.org/1999/xlink" id="Layer_1" version="1.1" viewBox="0 0 100 100"><defs><style> .st0 { fill: #0054a8; } .st1 { fill: #004a97; } .st2 { fill: #2657a6; } </style></defs><g><path class="st0" d="M78.3,39.3c-.5-1.4-1.6-2.6-3-3.5-3.8-2.4-9.7-2.6-13.6-.4-2.2,1.1-3.6,3.3-4,5.5-.8,3.7-.6,8.1,2.2,10.8,3.3,2.9,8.1,3.5,12.4,2.4.2,0,.9-.2,1.3-.4h.1c1.3-.6,2.6-1.5,3.5-2.7,2.2-3.2,2.4-8,1-11.6ZM71.3,47.5c-.1.7-.6,1.4-1.4,1.7-1.2.5-2.8.4-3.9-.2-.9-.7-1-1.7-1.2-2.7,0-2-.2-4.1.3-6,.4-1.1,1.6-1.4,2.8-1.5,1.2,0,2.3.2,3,1.1.5.7.4,1.5.5,2.3,0,1.6.1,3.6-.2,5.3Z"></path><path class="st0" d="M36.4,49.3c-1,0-2.1,0-3,0v-10.2s0,0,0,0h2.9c0-1.7,0-3.5,0-5h-11.1s-1.8,0-1.8,0c0,1.5,0,3.3,0,4.9,1,0,2,0,2.9,0v10.3s-3,0-3,0c0,1.6,0,3.2,0,4.8h13v-4.8Z"></path><path class="st0" d="M69.1,56.3c-1.2,1.8-2.8,3.5-4.5,4.8,0,0-.2,0-.3,0-.7-.5-1.5-.9-2.2-1.3.9-1.1,1.9-2.3,2.6-3.5h-.9c-.7,1.1-1.5,2.2-2.5,3.2-1.3-.5-2.5-1-3.8-1.3h-.1c.2-.7.6-1.2.7-1.8h-.8l-.8,1.6c-1.7-.4-3.7-.6-5.4-.7,0-.3,0-.6,0-.9h-.8c0,.3,0,.6,0,.9-1.8,0-3.6.3-5.3.7l-.8-1.5c-.3,0-.6,0-.8,0l.7,1.7h0c-1.3.5-2.6.9-3.9,1.4h-.1c-.8-1-1.6-1.9-2.3-2.9-.1-.5-.7-.2-1-.3.7,1.3,1.6,2.4,2.6,3.6-.8.5-1.6,1-2.4,1.4-1.8-1.3-3.4-3.1-4.7-4.9-.4,0-.6,0-.9,0,2.1,3.3,5.4,6.2,8.9,7.9,0,0,0,0,0,0s0,0,0,0c2.3,1.1,4.8,2,7.4,2.3,9.1,1.2,17.7-2.7,22.8-10.3-.4,0-.8,0-1.1,0ZM56.8,58.9h0c1.3.2,2.5.7,3.6,1.2-.9,1.1-2.2,2-3.3,2.8-.7.4-1.4.9-2.1,1.2l-1.3-.5v-.2c1.2-1.4,2.1-2.9,3-4.4ZM51,58c1.7,0,3.4.2,4.9.6h0c-.8,1.6-1.9,3.1-3,4.6-.5,0-1-.1-1.5-.2h-.5c0-1.8,0-3.3,0-5ZM45.3,58.6c1.5-.3,3.1-.5,4.8-.5v4.9c-.6.1-1.3.1-1.9.3-1.2-1.4-2.2-3-3.1-4.6h.1ZM40.6,60.1c1.2-.6,2.4-1,3.6-1.3h.1c.9,1.6,1.9,3.1,3,4.7-.4.2-.9.4-1.3.6-2-1-3.8-2.3-5.4-3.9h0c0,0,0,0,0,0ZM44.4,65.1c-2.5-.7-4.8-1.7-6.9-3.3h0c.7-.5,1.4-1,2.2-1.3,1.7,1.6,3.4,2.9,5.3,4.1-.1.2-.4.4-.6.5ZM55.3,65.5c-3.1.7-6.6.7-9.8,0,0-.1.1-.2.2-.3,2.8-1.8,7-1.8,9.7.1.1.2-.1.1-.2.2ZM58.1,64.7l-1.4.4c-.2-.1-.5-.3-.7-.5h0c1.9-1.2,3.6-2.5,5.2-4.1.8.3,1.6.8,2.3,1.2-1.6,1.3-3.5,2.2-5.5,2.9Z"></path><path class="st0" d="M31.8,31.8c.7-1,1.5-2,2.4-2.9.8-.7,1.5-1.4,2.3-2,.8.5,1.6.9,2.4,1.4-.9,1.1-1.9,2.3-2.6,3.5.2,0,.6,0,.9,0,.7-1.1,1.5-2.2,2.5-3.1,1.3.5,2.5,1,3.8,1.3h.1c0,.1-.7,1.8-.7,1.8.3,0,.5,0,.9,0,.3-.5.5-1,.8-1.5,1.7.4,3.5.6,5.4.6.2.2,0,.7.1.9h.8c0-.3,0-.6,0-.9,1.7,0,3.5-.3,5.2-.7h.1s.8,1.5.8,1.5c.3,0,.6,0,.8,0l-.7-1.7h0c1.4-.4,2.6-.9,3.9-1.4.9,1,1.8,2.1,2.6,3.2.3,0,.7,0,.9,0-.4-.6-.8-1.3-1.3-1.8-.4-.5-.8-1-1.3-1.6h0c0-.1,2.1-1.3,2.1-1.3h.3c1.8,1.2,3.4,2.9,4.7,4.7.4,0,.7.1.9,0-4-5.9-10.5-9.7-17.5-10.3h0c0,0,0,0,0,0-.8,0-1.8-.1-2.6,0-.3,0-.7,0-1.1,0-7.1.5-13.6,4.2-17.7,10.4.4,0,.8,0,1.1,0ZM44.1,29.2h-.1c-1.2-.3-2.4-.7-3.5-1.2v-.2c1.7-1.5,3.4-2.8,5.3-3.8.5.2.9.3,1.3.5v.2c-1.2,1.4-2.1,2.9-3,4.4ZM50,30c-.8.1-1.6,0-2.4,0-.8-.1-1.8-.2-2.6-.5.9-1.6,1.9-3.1,3.1-4.5l1.9.3c0,1.5,0,3.2,0,4.8ZM50.9,30c0-1.5,0-3.3,0-4.9.6,0,1.2-.2,1.8-.3,1.2,1.4,2.3,2.9,3,4.5-1.6.4-3.2.6-4.9.6ZM60.3,28c-1.2.5-2.3,1-3.6,1.2-.9-1.5-1.9-3.1-3-4.6.4-.2.9-.4,1.4-.6,1.9,1,3.8,2.3,5.3,3.9h0ZM56.5,23c2.5.7,4.8,1.7,7,3.3h0c0,.1-2,1.2-2,1.2h-.1c-1.6-1.6-3.4-2.9-5.2-4,0-.2.3-.4.5-.5ZM55.3,22.8h0c-2.6,1.9-6.7,2.1-9.4.4-.1-.1-.5-.2-.5-.4,3.1-.7,6.8-.8,9.9,0ZM37.3,26.3c1.9-1.4,3.9-2.4,6.1-3.1,0,0,.1-.2.3-.2h0c.2.1.4-.1.6,0,.2.1.4.3.5.4-1.8,1.1-3.6,2.5-5.3,4.1-.8-.3-1.5-.7-2.2-1.2h0c0,0,0,0,0,0Z"></path><path class="st0" d="M50,49.6c-2.8.8-5.8.2-7.8-1.9-.2-.3-.4-.6-.6-.9h-4c0,2.4,0,5.1,0,7.4h4.4s0-1.4,0-1.4c.5.2,1,.5,1.5.8,3.1,1.3,7,1.6,10.1,0,2.2-1.2,3.4-3.6,3.1-6.1-.3-2.5-2.7-4.7-5.1-5.3l-7.1-2.1-.5-.3c-.2-.2-.4-.5-.3-.8.6-1,1.9-.7,2.8-.7,2.1.3,4.2,1,5.4,2.9,1.3,0,2.8,0,4.2,0,0-2.4,0-4.5,0-6.9-1.3,0-3,0-4.3,0,0,.3,0,.8,0,1.2l-1.4-.7c-3.3-1.4-7.8-1.5-10.8.6-1.9,1.4-2.5,3.9-2,6.1.4,2.1,2.4,3.6,4.3,4.3,2.6.9,5.4,1.6,8,2.5.3.1.6.4.6.7,0,.2-.3.4-.5.5Z"></path></g><g><path class="st1" d="M35.5,81v-.9l.9-.8c1.8-1.6,2.6-2.5,2.6-3.5s-.4-1.2-1.3-1.2-1.2.3-1.6.6l-.4-1c.5-.4,1.4-.8,2.3-.8,1.6,0,2.4,1,2.4,2.2s-.9,2.4-2.2,3.5l-.7.6h0s3.1,0,3.1,0v1.2h-5Z"></path><path class="st1" d="M41.6,81v-.9l.9-.8c1.8-1.6,2.6-2.5,2.6-3.5s-.4-1.2-1.3-1.2-1.2.3-1.6.6l-.4-1c.5-.4,1.4-.8,2.3-.8,1.6,0,2.4,1,2.4,2.2s-.9,2.4-2.2,3.5l-.7.6h0s3.1,0,3.1,0v1.2h-5Z"></path><path class="st1" d="M53,77.3c0,2.4-.9,3.9-2.7,3.9s-2.6-1.6-2.6-3.8,1-3.9,2.7-3.9,2.6,1.6,2.6,3.8ZM49.1,77.4c0,1.8.5,2.8,1.3,2.8s1.2-1,1.2-2.8-.4-2.8-1.2-2.8c-.8,0-1.3.9-1.3,2.8Z"></path><path class="st1" d="M59.1,77.3c0,2.4-.9,3.9-2.7,3.9s-2.6-1.6-2.6-3.8,1-3.9,2.7-3.9,2.6,1.6,2.6,3.8ZM55.2,77.4c0,1.8.5,2.8,1.3,2.8s1.2-1,1.2-2.8-.4-2.8-1.2-2.8c-.8,0-1.3.9-1.3,2.8Z"></path><path class="st1" d="M65.3,77.3c0,2.4-.9,3.9-2.7,3.9s-2.6-1.6-2.6-3.8,1-3.9,2.7-3.9,2.6,1.6,2.6,3.8ZM61.3,77.4c0,1.8.5,2.8,1.3,2.8s1.2-1,1.2-2.8-.4-2.8-1.2-2.8c-.7,0-1.3.9-1.3,2.8Z"></path></g><g><path class="st2" d="M14.1,59.4l-6.4,1.5-.3-1.1,6.4-1.5.3,1.1Z"></path><path class="st2" d="M13.6,57.5l-4.6.7-.2-1.1h.5c-.2-.2-.3-.4-.5-.5-.1-.2-.2-.4-.2-.6,0-.2,0-.3,0-.5s.2-.2.3-.3c.1,0,.3-.1.5-.2l3.7-.6.2,1.1-3.5.5c-.1,0-.2,0-.3.1,0,0,0,.1,0,.3,0,0,0,.1,0,.2,0,0,.1.2.2.2l3.7-.6.2,1.1Z"></path><path class="st2" d="M13.1,52.5c0,.3,0,.5,0,.7s-.2.3-.4.4c-.2,0-.4.1-.6.1l-2.8.2v.5s-.7,0-.7,0v-.5s-1.4,0-1.4,0v-1.1c0,0,1.3,0,1.3,0v-.7s.7,0,.7,0v.7s2.7-.2,2.7-.2c.2,0,.3,0,.3-.1,0,0,0-.2,0-.3,0,0,0-.1,0-.2,0,0,0-.1,0-.2h.8s0,.1,0,.3c0,.1,0,.2,0,.4Z"></path><path class="st2" d="M13.1,50c0,.3,0,.6-.2.8-.1.2-.3.4-.6.5s-.6.1-.9.1h-1.4c-.4,0-.7,0-.9-.2-.3-.1-.4-.3-.6-.5-.1-.2-.2-.5-.2-.8,0-.4,0-.6.2-.8.1-.2.3-.3.6-.4.3,0,.6-.1,1-.1h.7s0,1.8,0,1.8h.9c.2,0,.3,0,.4,0,0,0,.2,0,.2-.1,0,0,0-.1,0-.2,0,0,0-.2,0-.2s-.1-.1-.2-.1c0,0-.2,0-.3,0h-.4s0-1,0-1h.3c.5,0,.8.1,1.1.4.3.2.4.6.4,1.1ZM10.2,50.4v-.8s-.4,0-.4,0c-.2,0-.3,0-.4,0-.1,0-.2,0-.2.1,0,0,0,.1,0,.2,0,0,0,.2,0,.2,0,0,.1.1.2.1.1,0,.3,0,.5,0h.3Z"></path><path class="st2" d="M13.1,47.9l-4.7-.4v-1.1c0,0,.8,0,.8,0-.3-.2-.4-.4-.5-.5-.1-.2-.2-.3-.1-.5,0,0,0,0,0,0,0,0,0,0,0,0h1.1c0,.2,0,.2,0,.3,0,0,0,.2,0,.2,0,.1,0,.3,0,.4,0,.1.2.2.3.4l3.2.3v1.1Z"></path><path class="st2" d="M13.3,45.3l-4.6-.8.2-1.1h.5c-.1-.1-.2-.3-.3-.5,0-.2,0-.4,0-.6,0-.2.1-.3.2-.4.1,0,.2-.2.4-.2.2,0,.3,0,.5,0l3.7.7-.2,1.1-3.4-.6c-.1,0-.2,0-.3,0,0,0-.1.1-.2.2,0,0,0,.2,0,.2,0,0,0,.2.1.3l3.7.7-.2,1.1Z"></path><path class="st2" d="M14.3,41c0,.2-.2.4-.3.5-.1.1-.3.2-.5.2-.2,0-.4,0-.5,0-.3,0-.5-.2-.7-.3-.2-.2-.3-.3-.4-.5,0-.2-.1-.4-.2-.7,0-.2,0-.5,0-.7h-.4c-.1-.1-.2-.2-.3-.2,0,0-.2,0-.2,0,0,0-.1.1-.1.2,0,0,0,.2,0,.2,0,0,0,.1.1.2,0,0,.2,0,.3.1h.3c0,0-.3,1.1-.3,1.1-.5-.2-.9-.4-1-.7s-.2-.7,0-1.2c.1-.4.3-.7.6-.9.3-.1.7-.1,1.1,0l2.1.6c.2,0,.3,0,.5.1.1,0,.3,0,.4,0,.1,0,.2,0,.3,0l-.3.9c-.1,0-.2,0-.4,0-.1,0-.2,0-.3,0,.2.1.3.2.4.4.1.2.1.4,0,.6ZM13.6,40.4c0,0,0-.1,0-.2,0,0,0-.1,0-.2,0,0,0-.1,0-.1l-1.3-.3c0,.1,0,.3.1.4,0,.1,0,.2.2.3,0,0,.1.2.2.2,0,0,.2.1.3.2.2,0,.3,0,.4,0,.1,0,.2-.1.2-.2Z"></path><path class="st2" d="M15.4,37.3c0,.3-.2.5-.4.6-.1.1-.3.2-.5.2-.2,0-.4,0-.7-.1l-2.6-1-.2.4-.7-.3.2-.4-1.3-.5.4-1,1.3.5.2-.7.7.3-.2.7,2.5.9c.2,0,.3,0,.4,0,0,0,.2-.1.2-.3,0,0,0-.1,0-.2,0,0,0-.1,0-.2l.8.3c0,0,0,.2,0,.3,0,.1,0,.2-.1.4Z"></path><path class="st2" d="M10.9,34l-.8-.4.4-1,.8.4-.4,1ZM15.9,36.2l-4.3-1.9.4-1,4.3,1.9-.4,1Z"></path><path class="st2" d="M17.3,33.3c-.2.3-.3.5-.6.6s-.5.2-.7.2c-.3,0-.5-.1-.9-.3l-1.4-.7c-.3-.2-.5-.3-.7-.6-.2-.2-.3-.4-.3-.7,0-.2,0-.5.2-.8.2-.3.3-.5.6-.6s.5-.2.7-.2c.3,0,.5.1.9.3l1.4.7c.3.2.5.3.7.6.2.2.3.4.3.7,0,.3,0,.5-.2.8ZM16.6,33c0-.1,0-.2,0-.3,0,0-.1-.2-.2-.2-.1,0-.2-.1-.3-.2l-1.5-.8c-.1,0-.2-.1-.4-.2-.1,0-.2,0-.3,0,0,0-.2,0-.2.2,0,.1,0,.2,0,.3,0,0,.1.2.2.2,0,0,.2.1.3.2l1.5.8c.1,0,.3.1.4.2.1,0,.2,0,.3,0,0,0,.2,0,.2-.2Z"></path><path class="st2" d="M18.2,31.5l-3.9-2.6.6-.9.4.3c0-.2,0-.4,0-.6,0-.2,0-.4.2-.6.1-.2.2-.3.4-.3.1,0,.3,0,.4,0,.2,0,.3.1.5.2l3.1,2.1-.6.9-2.9-1.9c-.1,0-.2-.1-.3-.1,0,0-.2,0-.2.1,0,0,0,.1,0,.2,0,0,0,.2,0,.3l3.1,2.1-.6.9Z"></path><path class="st2" d="M20.8,27.9c-.1.2-.3.3-.5.3-.2,0-.4,0-.5,0-.2,0-.3-.1-.5-.2-.2-.2-.4-.4-.5-.6,0-.2-.1-.4-.1-.6,0-.2,0-.4.1-.7,0-.2.1-.5.2-.7l-.3-.3c-.1,0-.2-.1-.3-.2,0,0-.2,0-.2,0,0,0-.1,0-.2.1,0,0,0,.1,0,.2,0,0,0,.1,0,.2,0,0,.1.1.2.2l.2.2-.7.8c-.4-.4-.6-.7-.7-1.1,0-.3,0-.7.4-1.1.3-.4.6-.5.9-.5.3,0,.7.1,1,.4l1.7,1.4c.1.1.3.2.4.3s.2.2.3.2c0,0,.2.1.3.2l-.6.8c0,0-.2-.1-.3-.2-.1,0-.2-.1-.3-.2.1.2.2.3.2.6,0,.2,0,.4-.2.6ZM20.4,27.1c0,0,0-.1,0-.2,0,0,0-.1,0-.2,0,0,0-.1,0-.2l-1-.8c0,.1,0,.3,0,.4,0,.1,0,.2,0,.4,0,.1,0,.2.1.3,0,0,.1.2.2.3.1.1.3.2.4.2.1,0,.2,0,.3-.1Z"></path><path class="st2" d="M22.5,25.9l-4.8-4.5.7-.8,4.8,4.5-.7.8Z"></path><path class="st2" d="M26.5,22.2c-.4.3-.7.4-1,.5-.3,0-.6,0-.9-.2-.3-.2-.6-.4-.9-.8l-1.5-1.9c-.3-.3-.5-.7-.6-1-.1-.3-.1-.6,0-.9s.3-.6.7-.9c.4-.3.7-.5,1-.5.3,0,.6,0,.9.2.3.2.6.4.9.8l1.5,1.9c.3.3.5.7.6,1s.1.6,0,.9c0,.3-.3.6-.7.9ZM25.9,21.5c.2-.1.2-.2.3-.4,0-.1,0-.3,0-.4,0-.1-.2-.3-.3-.4l-1.9-2.3c-.1-.1-.2-.3-.3-.4-.1,0-.2-.1-.4-.2-.1,0-.3,0-.4.2-.1.1-.2.2-.2.4,0,.1,0,.3,0,.4,0,.1.2.3.3.4l1.9,2.3c.1.1.2.3.3.4.1,0,.2.2.4.2.1,0,.3,0,.4-.2Z"></path><path class="st2" d="M28.4,20.6l-2.6-3.9.9-.6.4.6c0-.3,0-.6,0-.8,0-.2.2-.3.3-.4,0,0,0,0,0,0,0,0,0,0,0,0l.6,1c0,0-.1,0-.2,0,0,0-.1,0-.2.1-.1,0-.2.2-.3.3,0,.1,0,.3,0,.5l1.8,2.7-.9.6Z"></path><path class="st2" d="M31.1,17.2c-.3.2-.6.2-.8.2-.3,0-.5-.1-.7-.3s-.4-.4-.6-.7c-.2-.3-.3-.6-.3-.9,0-.3,0-.5.2-.7.1-.2.3-.4.6-.6.3-.2.5-.2.8-.2.3,0,.5.1.7.3.2.2.4.4.6.7.2.3.2.6.3.8,0,.3,0,.5-.1.7-.1.2-.3.4-.6.6ZM30.8,16.6c0,0,.1,0,.2-.2,0,0,0-.1,0-.2s0-.2,0-.3-.1-.2-.2-.4c0-.1-.1-.3-.2-.4,0,0-.1-.2-.2-.2,0,0-.1,0-.2,0,0,0-.1,0-.2,0,0,0-.1,0-.2.2,0,0,0,.1,0,.2,0,0,0,.2,0,.3,0,.1.1.2.2.4,0,.1.1.2.2.3,0,0,.1.2.2.2,0,0,.1,0,.2,0,0,0,.1,0,.2,0ZM32.5,19.9c-.3.1-.5.3-.8.3-.2,0-.5,0-.6,0-.2,0-.3-.2-.4-.4,0-.1-.1-.3-.1-.4s0-.3.1-.4c0-.1.1-.3.2-.4l.4-.2c0,0,0,.2,0,.2,0,0,0,.2,0,.2,0,0,0,.1,0,.2,0,.1.2.2.3.2.1,0,.3,0,.6-.2.2-.1.4-.3.5-.4,0-.1.1-.2,0-.4,0,0,0-.1-.1-.2,0,0-.1,0-.2,0,0,0-.2,0-.4.1l-1,.4c-.2,0-.4,0-.6,0-.2,0-.3-.2-.4-.3,0-.2-.1-.3,0-.5,0-.2,0-.4.2-.6h.4c0,.1,0,.2,0,.3,0,0,0,.2,0,.2,0,0,0,0,.2,0,0,0,.2,0,.3,0l.9-.3c.3-.1.6-.2.9,0,.3,0,.5.3.6.6.1.3.2.5.2.7,0,.2-.1.4-.3.7-.2.2-.5.4-.8.6ZM31,14.5l-.4-.2c0-.1,0-.3,0-.4,0-.2.2-.3.3-.5l.5.4s-.1.1-.2.2c0,0-.2.2-.2.3,0,0-.1.2-.1.2Z"></path><path class="st2" d="M34.5,17.3c-.2,0-.4,0-.6,0-.2,0-.3-.1-.5-.3-.1-.1-.2-.3-.3-.4-.1-.3-.2-.5-.1-.7,0-.2,0-.4.2-.6.1-.2.2-.4.4-.6.2-.2.3-.3.5-.5l-.2-.4c0-.1-.1-.2-.2-.3,0,0-.1-.1-.2-.2,0,0-.1,0-.2,0,0,0-.1,0-.2.1,0,0,0,.1,0,.2,0,0,0,.2,0,.3v.3c0,0-.9.4-.9.4-.2-.5-.2-.9-.1-1.3s.4-.6.9-.8c.4-.2.8-.2,1.1,0,.3.2.5.4.7.8l.8,2c0,.2.1.3.2.4,0,.1.1.2.2.3,0,0,.1.2.2.3l-.9.4c0,0-.1-.2-.2-.3,0-.1-.1-.2-.2-.3,0,.2,0,.4,0,.6,0,.2-.2.3-.5.4ZM34.5,16.4c0,0,.1,0,.2-.1,0,0,0-.1,0-.2,0,0,0-.1,0-.2l-.5-1.2c0,.1-.2.2-.2.3,0,.1-.1.2-.2.3,0,.1,0,.2,0,.3,0,.1,0,.2,0,.3,0,.2.2.3.3.3,0,0,.2,0,.3,0Z"></path><path class="st2" d="M36.8,16.3l-1.4-4.5,1-.3v.4c.2-.2.4-.4.5-.5.1-.1.3-.3.5-.3.2,0,.3,0,.5,0,.1,0,.2.2.3.3,0,.1.2.3.2.5l1.1,3.5-1,.3-1.1-3.3c0-.1,0-.2-.2-.3,0,0-.2,0-.3,0,0,0-.1,0-.2.1,0,0-.1.1-.2.2l1.1,3.5-1,.3Z"></path><path class="st2" d="M39.1,9.9l-.2-.9,1-.2.2.9-1,.2ZM40.3,15.2l-1.1-4.5,1-.2,1.1,4.5-1,.2Z"></path><path class="st2" d="M41.9,14.8v-.7c-.1,0,.7-3.3.7-3.3l-1.2.2v-.8c-.1,0,2.2-.4,2.2-.4v.6c.1,0-.7,3.4-.7,3.4l1.3-.2v.8c.1,0-2.3.4-2.3.4Z"></path><path class="st2" d="M45.6,14.4c-.2,0-.4,0-.5-.1-.2,0-.3-.2-.4-.4,0-.2-.1-.3-.2-.5,0-.3,0-.5,0-.7,0-.2.2-.4.4-.5.2-.1.4-.3.6-.4.2-.1.4-.2.7-.3v-.4c0-.1,0-.2,0-.3,0,0,0-.2-.1-.2,0,0-.1,0-.2,0,0,0-.2,0-.2,0,0,0,0,.1-.1.2,0,0,0,.2,0,.3v.3s-1,0-1,0c0-.5,0-.9.3-1.2.2-.3.6-.4,1.1-.5.5,0,.8,0,1,.3.2.2.4.6.4,1l.2,2.1c0,.2,0,.3,0,.5,0,.1,0,.3,0,.4,0,.1,0,.2,0,.3h-1s0-.1,0-.3c0-.1,0-.2,0-.3,0,.2-.1.4-.3.5-.1.2-.3.3-.6.3ZM46,13.5c0,0,.1,0,.2,0,0,0,.1,0,.1-.1,0,0,0,0,0-.1v-1.3c-.2,0-.3.2-.4.2,0,0-.2.2-.2.3,0,0-.1.2-.2.3,0,.1,0,.2,0,.3,0,.2,0,.3.1.4,0,0,.2.1.3.1Z"></path><path class="st2" d="M49.5,14.2c-.3,0-.5,0-.7-.1-.2,0-.3-.2-.4-.4,0-.2-.1-.4-.1-.7v-2.8s-.5,0-.5,0v-.7s.5,0,.5,0v-1.4s1.1,0,1.1,0v1.4s.7,0,.7,0v.7s-.7,0-.7,0v2.7c0,.2,0,.3.1.3,0,0,.2.1.3,0,0,0,.1,0,.2,0,0,0,.1,0,.2,0v.8c0,0-.2,0-.3,0s-.2,0-.4,0Z"></path><path class="st2" d="M50.7,14.1l.2-4.7h1.1c0,0-.2,4.7-.2,4.7h-1.1ZM51,8.7v-.9s1.1,0,1.1,0v.9s-1.1,0-1.1,0Z"></path><path class="st2" d="M53.9,14.5c-.3,0-.6-.1-.8-.3-.2-.2-.3-.4-.4-.6,0-.3,0-.6,0-.9l.2-1.6c0-.3.1-.6.3-.9.1-.2.3-.4.5-.5.2,0,.5-.1.8,0,.3,0,.6.1.8.3.2.2.3.4.4.6,0,.3,0,.6,0,.9l-.2,1.6c0,.3-.1.6-.3.9-.1.2-.3.4-.6.5-.2,0-.5.1-.8,0ZM54,13.7c.1,0,.2,0,.3,0,0,0,.1-.2.1-.3,0-.1,0-.2,0-.4l.2-1.7c0-.1,0-.3,0-.4,0-.1,0-.2,0-.3,0,0-.1-.1-.3-.1-.1,0-.2,0-.3,0s-.1.2-.1.3,0,.2,0,.4l-.2,1.7c0,.1,0,.3,0,.4,0,.1,0,.2,0,.3,0,0,.1.1.3.1Z"></path><path class="st2" d="M56,14.7l1-4.6,1,.2v.5c0-.1.3-.2.5-.3.2,0,.4,0,.6,0,.2,0,.3.1.4.2,0,.1.1.3.2.4,0,.2,0,.3,0,.5l-.8,3.6-1-.2.8-3.4c0-.1,0-.2,0-.3s0-.1-.2-.2c0,0-.2,0-.2,0,0,0-.2,0-.3.1l-.8,3.6-1-.2Z"></path><path class="st2" d="M61.5,16.2l1.3-3.7-.5-.2.3-.7.5.2v-.3c.2-.3.3-.5.4-.7.1-.2.3-.3.5-.3.2,0,.4,0,.7,0,0,0,.2,0,.3.1,0,0,.2,0,.3.1l-.3.8s0,0-.1,0c0,0,0,0-.1,0-.1,0-.2,0-.3,0,0,0-.1.2-.2.3v.4c-.1,0,.5.2.5.2l-.3.7-.6-.2-1.3,3.7-1-.4Z"></path><path class="st2" d="M64.6,17.5c-.3-.1-.5-.3-.7-.5-.1-.2-.2-.4-.2-.7,0-.3,0-.6.2-.9l.6-1.4c.1-.3.3-.6.5-.7.2-.2.4-.3.7-.3.2,0,.5,0,.8.2.3.1.5.3.7.5.1.2.2.4.2.7s0,.6-.2.9l-.6,1.4c-.1.3-.3.6-.5.7-.2.2-.4.3-.7.3-.3,0-.5,0-.8-.2ZM65,16.8c.1,0,.2,0,.3,0,0,0,.2-.1.2-.2,0-.1.1-.2.2-.4l.7-1.6c0-.1.1-.3.1-.4,0-.1,0-.2,0-.3,0,0,0-.2-.2-.2-.1,0-.2,0-.3,0,0,0-.2.1-.2.2,0,.1-.1.2-.2.3l-.7,1.6c0,.1-.1.3-.1.4,0,.1,0,.2,0,.3,0,0,0,.2.2.2Z"></path><path class="st2" d="M66.6,18.3l2.2-4.1.9.5-.3.6c.3-.2.5-.3.7-.3.2,0,.4,0,.5,0,0,0,0,0,0,0,0,0,0,0,0,0l-.5,1c0,0,0-.1-.2-.2,0,0-.1,0-.2-.1-.1,0-.3,0-.4,0-.1,0-.3,0-.5.1l-1.5,2.8-.9-.5Z"></path><path class="st2" d="M71.8,21.7c-.3-.2-.5-.5-.6-.8-.1-.3-.1-.6,0-.9,0-.3.2-.7.5-1l.9.4c-.1.2-.3.4-.3.6,0,.2-.1.4,0,.5,0,.1,0,.3.2.4.2.1.3.1.4,0,.1,0,.3-.1.4-.3.2-.2.3-.5.3-.7,0-.2,0-.5,0-.7l-.2-1.1c0-.3,0-.6,0-.9s.2-.6.4-.9c.3-.4.7-.6,1.1-.7.4,0,.8,0,1.2.4.2.2.4.4.5.6s.2.4.2.6c0,.2,0,.4-.1.6,0,.2-.2.4-.3.6l-.9-.4c.1-.2.2-.3.3-.5,0-.2,0-.3,0-.4,0-.1,0-.2-.2-.3-.1-.1-.3-.1-.4,0-.1,0-.3.1-.4.3-.1.2-.2.4-.2.5,0,.2,0,.4,0,.6l.2,1.1c0,.3.1.7,0,1,0,.4-.2.7-.4,1.1-.2.3-.4.4-.7.6-.3.1-.5.2-.8.1-.3,0-.5-.1-.8-.3Z"></path><path class="st2" d="M74.4,23.8c-.2-.2-.4-.4-.4-.6,0-.2,0-.4,0-.5,0-.2.2-.4.4-.6l1.8-2.1-.3-.3.5-.5.3.3.9-1.1.8.7-.9,1.1.5.5-.5.5-.5-.5-1.8,2c-.1.1-.2.2-.1.3,0,0,0,.2.2.3,0,0,0,0,.1.1,0,0,0,0,.1,0l-.6.6c0,0-.2-.1-.3-.2,0,0-.2-.1-.3-.2Z"></path><path class="st2" d="M75.8,25.1c-.1-.1-.2-.3-.3-.5,0-.2,0-.4,0-.5,0-.2.2-.3.3-.5.2-.2.4-.3.6-.4.2,0,.4,0,.7,0,.2,0,.4,0,.7.2s.4.2.7.3l.3-.3c0,0,.2-.2.2-.3,0,0,0-.2,0-.2,0,0,0-.1-.1-.2,0,0-.1-.1-.2-.1,0,0-.1,0-.2,0,0,0-.1,0-.2.2l-.2.2-.7-.8c.4-.4.8-.5,1.1-.5.4,0,.7.2,1,.5.3.3.5.7.4,1,0,.3-.2.6-.5,1l-1.6,1.5c-.1.1-.2.2-.3.3,0,.1-.2.2-.3.3,0,0-.1.2-.2.2l-.7-.7c0,0,.1-.2.2-.3,0-.1.1-.2.2-.2-.2,0-.4.1-.6.1-.2,0-.4,0-.6-.3ZM76.7,24.8s.1,0,.2,0c0,0,.1,0,.2,0s.1,0,.2,0l.9-.9c-.1,0-.3,0-.4,0s-.2,0-.3,0c-.1,0-.2,0-.3,0,0,0-.2.1-.3.2-.1.1-.2.2-.2.4,0,.1,0,.2,0,.3Z"></path><path class="st2" d="M77.7,26.9l3.6-3,.7.8-.4.3c.2,0,.4,0,.6.1.2,0,.4.2.5.4.1.1.2.3.2.4,0,.1,0,.3-.1.4,0,.1-.2.3-.3.4l-2.9,2.4-.7-.8,2.7-2.2c.1,0,.2-.2.2-.3,0,0,0-.2,0-.3,0,0-.1-.1-.2-.1,0,0-.2,0-.3,0l-2.9,2.4-.7-.8Z"></path><path class="st2" d="M80.5,30.6c-.2-.3-.2-.6-.1-.9.1-.3.4-.6.9-.9l1.2-.8c.3-.2.5-.3.8-.4.3,0,.5-.1.7,0,.2,0,.4.2.5.4,0,.1.1.3.2.4,0,.2,0,.3,0,.5l1.8-1.2.6.9-5.4,3.7-.6-.9.3-.2c-.2,0-.3,0-.5-.2-.1,0-.2-.2-.3-.3ZM81.3,30.5s0,0,.1.1c0,0,.1,0,.2.1l2.5-1.7c0,0,0-.2,0-.2,0,0,0-.1,0-.2,0-.1-.2-.2-.4-.1-.2,0-.3.1-.5.2l-1.4,1c-.1,0-.2.2-.3.3,0,0-.1.2-.2.3,0,0,0,.2,0,.3Z"></path><path class="st2" d="M82.2,33.4c0-.2-.1-.4-.1-.5,0-.2,0-.4.2-.5.1-.2.2-.3.4-.4.3-.1.5-.2.7-.2.2,0,.4,0,.6.1.2,0,.4.2.6.3.2.1.4.3.6.5l.4-.2c.1,0,.2-.1.3-.2,0,0,.1-.1.1-.2,0,0,0-.1,0-.2,0,0-.1-.1-.2-.2,0,0-.1,0-.2,0,0,0-.2,0-.3,0h-.3c0,.1-.5-.8-.5-.8.5-.2.9-.3,1.2-.2.3,0,.6.4.9.8.2.4.3.8.1,1.1-.1.3-.4.6-.8.8l-1.9,1c-.2,0-.3.2-.4.2-.1,0-.2.1-.3.2,0,0-.2.1-.2.2l-.5-.9c0,0,.2-.1.3-.2.1,0,.2-.1.2-.2-.2,0-.4,0-.6,0-.2,0-.4-.2-.5-.4ZM83.1,33.4c0,0,0,.1.1.1,0,0,.1,0,.2,0,0,0,.1,0,.2,0l1.1-.6c-.1,0-.2-.1-.3-.2-.1,0-.2,0-.3-.1s-.2,0-.3,0c-.1,0-.2,0-.3.1-.2,0-.3.2-.3.3,0,.1,0,.2,0,.3Z"></path><path class="st2" d="M83.5,35.7l4.3-1.9.4,1-.7.3c.3,0,.6,0,.7.2.2,0,.3.2.4.4,0,0,0,0,0,0,0,0,0,0,0,0l-1,.5c0,0,0-.1,0-.2,0,0,0-.2,0-.2,0-.1-.1-.2-.3-.3s-.3-.1-.5-.2l-2.9,1.3-.4-1Z"></path><path class="st2" d="M84.9,39.1c-.1-.3,0-.6,0-.9.2-.3.6-.5,1.1-.7l1.3-.5c.3-.1.6-.2.9-.2.3,0,.5,0,.7.1.2,0,.3.3.4.5,0,.2,0,.3,0,.5s0,.3-.1.4l2-.7.4,1-6.2,2.2-.4-1h.3c-.2-.2-.3-.3-.4-.4-.1-.1-.2-.2-.2-.4ZM85.7,39.2c0,0,0,.1.1.2,0,0,.1.1.2.2l2.8-1c0,0,0-.2,0-.2,0,0,0-.2,0-.2,0-.1-.2-.2-.3-.2-.2,0-.3,0-.5,0l-1.6.6c-.1,0-.3.1-.4.2-.1,0-.2.1-.2.2,0,0,0,.2,0,.3Z"></path><path class="st2" d="M85.8,41.6l4.5-1.2.3,1-4.5,1.2-.3-1ZM91,40.1l.9-.2.3,1-.9.2-.3-1Z"></path><path class="st2" d="M86.2,43.2h.7c0-.1,3.3.5,3.3.5l-.2-1.2.8-.2.5,2.3h-.6c0,.1-3.4-.5-3.4-.5l.3,1.3-.8.2-.5-2.4Z"></path><path class="st2" d="M86.8,46.8c0-.2,0-.4,0-.5,0-.2.2-.3.4-.4.2-.1.3-.2.5-.2.3,0,.5,0,.8,0,.2,0,.4.2.5.4.2.2.3.3.4.5.1.2.2.4.4.6h.4c.1,0,.2,0,.3-.1,0,0,.2,0,.2-.1,0,0,0-.1,0-.2,0,0,0-.2,0-.2,0,0-.1,0-.2,0,0,0-.2,0-.3,0h-.3s0-1,0-1c.5,0,.9,0,1.2.2.3.2.5.6.5,1.1,0,.5,0,.8-.3,1-.2.2-.6.4-1,.4l-2.1.3c-.2,0-.3,0-.5,0-.1,0-.3,0-.4,0-.1,0-.2,0-.3,0v-1s.1,0,.2-.1c.1,0,.2,0,.3,0-.2,0-.4-.1-.5-.2-.2-.1-.3-.3-.3-.6ZM87.7,47.1c0,0,0,.1,0,.2,0,0,0,.1.1.1,0,0,.1,0,.1,0l1.3-.2c0-.1-.2-.2-.3-.3,0,0-.2-.2-.3-.2,0,0-.2-.1-.3-.1-.1,0-.2,0-.3,0-.2,0-.3,0-.4.1,0,0-.1.2-.1.3Z"></path><path class="st2" d="M87.2,50.7c0-.3,0-.5.1-.7,0-.2.2-.3.4-.4.2,0,.4-.1.6-.1h2.8c0-.1,0-.6,0-.6h.7s0,.4,0,.4h1.4c0,0,0,1,0,1h-1.4c0,0,0,.8,0,.8h-.7s0-.7,0-.7h-2.7c-.2.1-.3.2-.3.3,0,0,0,.2,0,.3,0,0,0,.1,0,.2s0,.1,0,.2h-.8s0-.2,0-.3c0-.1,0-.2,0-.4Z"></path><path class="st2" d="M87.3,51.9h4.7s0,1.1,0,1.1h-4.7s0-1.1,0-1.1ZM92.7,52h.9s0,1.1,0,1.1h-.9s0-1.1,0-1.1Z"></path><path class="st2" d="M87.1,55.1c0-.3.1-.6.3-.8.1-.2.3-.4.6-.4.3,0,.5-.1.9,0h1.6c.3.2.6.2.9.4.2.1.4.3.5.5.1.2.1.5.1.8,0,.3-.1.6-.3.8-.1.2-.3.4-.6.4-.2,0-.5.1-.9,0h-1.6c-.3-.2-.6-.2-.9-.4-.2-.1-.4-.3-.5-.5-.1-.2-.1-.5-.1-.8ZM87.8,55.2c0,.1,0,.2,0,.3,0,0,.2.1.3.1.1,0,.3,0,.4,0h1.7c.1.2.3.2.4.1.1,0,.2,0,.3,0s.1-.1.1-.3c0-.1,0-.2,0-.3,0,0-.2-.1-.3-.1-.1,0-.2,0-.4,0h-1.7c-.1-.2-.3-.2-.4-.1s-.2,0-.3,0-.1.1-.1.3Z"></path><path class="st2" d="M87,57.2l4.6.8-.2,1.1h-.5c.1.1.2.3.3.5,0,.2,0,.4,0,.6,0,.2-.1.3-.2.4-.1,0-.2.2-.4.2-.2,0-.3,0-.5,0l-3.7-.7.2-1.1,3.4.6c.1,0,.2,0,.3,0,0,0,.1-.1.2-.2,0,0,0-.2,0-.2s0-.2-.1-.3l-3.7-.7.2-1.1Z"></path></g></svg> 