<?xml version="1.0" encoding="UTF-8"?> <svg xmlns="http://www.w3.org/2000/svg" xmlns:xlink="http://www.w3.org/1999/xlink" id="Layer_1" version="1.1" viewBox="0 0 100 100"><defs><style> .st0 { fill: #fff; } .st1 { fill: #81a074; } </style></defs><path class="st1" d="M51.8,5.2l2.5.2c21.2,1.9,38.4,19.2,40.4,40.4l.2,2.5v3.6l-.2,2.5c-1.9,21.2-19.2,38.4-40.4,40.4l-2.5.2h-3.6l-2.5-.2c-21.2-1.9-38.4-19.2-40.4-40.4l-.2-2.5c0-1.2,0-2.4,0-3.6C6.2,24.9,24.9,6.1,48.2,5.2h3.6ZM48.6,6.3C13.4,7.4-6.2,47.9,15,76.3c18.6,24.8,56.6,22.8,72.5-3.7C105.4,42.8,83,5.2,48.6,6.3Z"></path><path class="st0" d="M48.6,6.3c34.4-1.1,56.7,36.6,38.9,66.2-16,26.5-53.9,28.6-72.5,3.7C-6.2,47.9,13.4,7.4,48.6,6.3Z"></path><path class="st0" d="M49.8,10.7c.4,0,.9,0,1.3,0l-.2,5.8h1.4l.2-5.8h1.5c0,0,0-1.1,0-1.1h-4.5c0,0,0,.9,0,.9,0,0,.2.1.2.2Z"></path><path class="st0" d="M46,9.7l-1.5.3-.5,2.8-1.4-2.5-1.5.2s.4.8.5.9c.5.8,1.6,2.1,1.9,2.9s.3,2,.5,2.8l1.4-.3c-.1-.7-.4-1.6-.4-2.3-.1-1.4.8-3.4,1-4.9Z"></path><path class="st0" d="M59.2,10.6l-3.9-.6-1.1,6.9,3.9.7.2-1.2-2.4-.4c-.2,0-.2-.2-.1-.4,0-.5.2-1,.3-1.5l2.3.4.2-1.2-2.3-.4.3-1.6,2.5.4.2-1.2Z"></path><polygon class="st0" points="40.5 10.6 36.2 11.8 36.5 13 38 12.6 39.6 18.2 40.9 17.8 39.3 12.2 40.8 11.8 40.5 10.6"></polygon><path class="st0" d="M64.2,14.1c.2-.9.2-1.6-.6-2.2-1.5-1.1-3.5-.6-3.7,1.3s2.3,2.2,2,3.5-1.6.9-1.7,0c0-.4.1-.6.1-.9l-1.3-.4c-1.5,3.1,4.1,4.6,4.5,1.2s-.9-1.7-1.7-2.5c-1.5-1.7,1.6-2.6,1-.4l1.3.4Z"></path><polygon class="st0" points="69.9 14.7 66 12.7 65.4 13.8 66.8 14.5 64.2 19.7 65.4 20.2 67.9 15.1 69.3 15.7 69.9 14.7"></polygon><path class="st0" d="M35.6,16c.7-.7.5-1.7,0-2.4-1.2-1.7-3.2.2-4.6.5l2.9,6.4,1.2-.5-1.2-2.7c1.9-1.3,1.9.7,2.7,1.8.2.1,1.5-.5,1.5-.6-1-.7-1-2.8-2.6-2.6Z"></path><path class="st0" d="M71.3,17c.1,0,1.7,1.1,1.9,1.2s.2.1.3,0l.5-.9-3.2-2.1-3.7,5.8,3.3,2.2.7-.9-2.1-1.4,1-1.6,2,1.2.5-.9-2-1.2.8-1.4Z"></path><polygon class="st0" points="29.1 23.6 30.3 22.8 29.9 21.5 31.4 20.4 32.5 21.5 33.6 20.6 28.4 15.8 26.9 16.8 29.1 23.6"></polygon><path class="st0" d="M75.3,18.5l-4.5,5.2c.9.7,2.1,2.2,3.3,2.1,1.3-.1,3.7-2.8,3.8-4.1s-1.7-2.5-2.6-3.2Z"></path><path class="st0" d="M24.6,18.8c-1,.2-2,1.6-2.8,2.1l4.5,5.2c.2.2,1.2-.7,1.1-.9l-1.8-2.1c1.1-.8,1.9-1.8,1.1-3.2s-1.2-1.3-2.1-1.2Z"></path><path class="st0" d="M48.6,20c-23.6,1.2-36.8,28-23,47.4,12.4,17.5,38.6,16.6,49.9-1.6,12.8-20.5-2.9-47.1-26.9-45.9Z"></path><polygon class="st0" points="84.1 28.2 81.8 25 76.2 29.1 76.9 30.2 79.4 28.4 80.7 30.3 81.7 29.7 80.4 27.7 81.7 26.8 83.1 28.8 84.1 28.2"></polygon><path class="st0" d="M18.5,25.3c-1.1.2-1.9,2-2.6,2.8l5.7,4.1c.7-1.1,2.2-2.4,1.7-3.8-.5-1.3-3.3-3.3-4.8-3.1Z"></path><path class="st0" d="M83.6,29.9c-1,.2-3.5,1.5-4.1,2.4-.9,1.3.3,3.5,1.8,3.5,1.1,0,4.2-1.5,4.7-2.5s.3-1.2,0-1.9c-.4-1.1-1.2-1.7-2.5-1.5Z"></path><path class="st0" d="M17.7,32.2c.3-1.3-1.4-2.3-2.4-1.9s-1.7,2.4-2.2,3.4l6.3,3,.5-1.2-2.6-1.3c.8-2.2,2-.4,3.5-.2l.6-1.3c-1,.2-2.4-1.4-3.3-.7-.2.1-.2.3-.3.3Z"></path><path class="st0" d="M87.6,34.8l-6.6,2.2.5,1.3,2.8-.9c0,.5.5,1,0,1.5-.3.4-2.3.8-2.3,1.1l.5,1.5c.7-1,3-.7,2.7-2.3.7.8,1.5.8,2.3.3,1.9-.9.3-3.2,0-4.6Z"></path><path class="st0" d="M15.2,37.1c-.1-1.7-2.4-2.1-3.2-.6s-.4,2.6,1.1,3.1l.4-1.2c-1.6-.6-.6-2.2.8-1.2s.3.7.2,1.3l.9.3c0-.3.2-.9.6-1,.6-.1,1.8.2,1.7,1s-1.4.4-1.5.5l-.4,1.3c2.5,1.1,4.1-3,1.6-4-.5-.2-1.2-.4-1.6,0l-.5.5Z"></path><path class="st0" d="M13.2,46.3c-1.2.2-1,2.2.3,2.1,1.5,0,1.2-2.4-.3-2.1Z"></path><path class="st0" d="M86.6,46.3c-1.3.3-1,2.3.4,2.1,1.4-.2,1.1-2.4-.4-2.1Z"></path><polygon class="st0" points="89.9 57.3 87.2 56.8 83.4 54.2 83.1 55.7 85.5 57.1 82.7 57.6 82.5 59.1 87 58.2 89.6 58.7 89.9 57.3"></polygon><path class="st0" d="M16.8,59.3c1.2-1,.5-3.7-1-3.9-1.2-.2-3.9.4-4.9,1.1-1.1.8-.8,2.1-.4,3.2l-.6,1,.9.5.6-.8c1.4.3,4.3-.2,5.4-1.1Z"></path><path class="st0" d="M18.2,60.8l-.6-1.3c-1.5.7-3.4,1.1-4.9,1.9-1.3.7-1.4,1.8-.8,3,.7,1.3,1.6,1.3,2.8.9,1.5-.5,2.9-1.3,4.4-1.7l-.5-1.3-4.7,1.8c-1.1.4-1.8-.7-.8-1.4l5-2Z"></path><path class="st0" d="M84.6,59.7c-1.3-.4-2.4-.3-2.9,1.1-.9,2.4,1,3.2,2.9,3.7,1.3.4,2.8.8,3.6-.6,1-1.8,0-3.1-1.8-3.6,0,.4-.5,1.2-.2,1.4s1.1.3,1.3.8,0,.9-.5,1c-.7.2-2.4-.4-3.1-.7-.5-.2-1.5-.5-1.5-1.2.1-1.1,1.6-.4,1.7-.5l.4-1.3Z"></path><path class="st0" d="M87.1,66.4l-6.3-3c0,.3-.6.9-.4,1.2l3.9,2-4.9-.5c-.7,1.7-2,3-3,4.6l5.7,4,2.3-3.2-1-.7-1.4,2.1-1.6-1,1.3-1.9-.9-.7-1.4,1.8-1.3-.8,1.3-2-.5-.6,6,2.9.5-1.1-4.3-2.2,5,.6.7-1.4Z"></path><path class="st0" d="M13.7,68.2l1.4-.3c.1,0,.1,0,.2.1,0,.1.7,1.4.7,1.5l-1.1,1c.1.2.5,1.3.7,1.2l5.3-4.7-.8-1.5-7,1.4.5,1.3Z"></path><path class="st0" d="M18.3,75.4c.2,0,1-.5,1-.6l-1.3-2,4.7-3.4-.7-1.1-5.7,3.9v.3s2.1,3,2.1,3Z"></path><path class="st0" d="M75,74c0,0,.2,0,.3,0l4,3.9.9-.9-4.1-4c-.1-.2.8-.9.9-1.1l-.8-.8-3.1,3.2.8.7c.3,0,.8-.9.9-1Z"></path><polygon class="st0" points="24.3 71.8 19.1 76.2 20 77.3 25.2 72.9 25.2 72.7 24.3 71.8"></polygon><path class="st0" d="M30,76.9c-1.8-1-3-2.6-4.5-3.9l-.8.8,1.1,1-4,4.2,1,.9,4-4.1c.4.1.9,1.2,1.4.9s.5-.7.6-.6l-1,4.3c-.2.5-1.5,1.9-1.6,2.2s.9.9,1.1.8l1.6-2.1,3.9-2.4c-.3-.2-1-.9-1.3-.8s-2.2,1.6-2.3,1.5l.8-2.8Z"></path><path class="st0" d="M72.6,75c-.8.1-1.9,1.2-2,2s.3,1.5.9,2c1.4,1.1,3-.6,3.9,0,.7.4.6,1.4-.2,1.7-.6.2-1-.6-1.2-.6l-.9.9c.7,1.2,1.9,1.3,3,.5,1.3-1,1.7-2.5.3-3.6s-3.1.6-4,0c-.5-.3-.7-.9-.2-1.3.7-.6,1.2.2,1.4.2l1-.8c-.5-.6-1-1-1.8-.8Z"></path><polygon class="st0" points="69.3 77.4 68.2 78.3 72.1 83.8 72.3 83.9 73.4 83.1 69.3 77.4"></polygon><path class="st0" d="M66.2,84.8c.6,1.4,1.5,1.8,3,1.2,1.5-.7,2.1-2,1.1-3.4s-2.9-.2-3.8-.8c-.7-.5-.4-1.6.4-1.5s.6.6.8.6c.7-.4,1.5-.3.8-1.2-1.2-1.4-3.9-.2-3.8,1.5,0,.6.4,1.5.9,1.8,1.1.7,2.4,0,3.2.4.5.3.7,1.1.2,1.5-.7.5-1.3.1-1.5-.6l-1.3.6Z"></path><path class="st0" d="M37.2,81c-.4,0-1.3-.8-1.6-.6l-4.3,5.3v.3s1.2.5,1.2.5l.9-1.1c.1,0,1.7.6,1.8.8l-.2,1.5,1.3.6,1.1-7.2Z"></path><polygon class="st0" points="66.3 87.2 63.8 80.7 62.7 81.1 62.6 81.2 64.3 85.5 61 81.8 59.5 82.3 61.9 88.8 63.2 88.3 61.6 84 64.8 87.7 66.3 87.2"></polygon><path class="st0" d="M40.2,82.1c-.3,0-1.4-.5-1.6-.3l-1.8,6.6,1.2.3,1.4-4.6.3,5c0,.3,1.2.4,1.5.5l1.9-6.7-1.3-.3-1.3,4.5-.4-5Z"></path><path class="st0" d="M57.2,82.7c-2.7.3-2.2,2.9-1.6,4.8s1.5,3.1,3.6,2.1c1.7-.8,1-3.5.6-5-.4-1.3-1-2.1-2.6-2Z"></path><path class="st0" d="M42.7,90c2.1.2,4,1,4.7-1.6.3-1,.5-3.2,0-4.1-.7-1.3-2.8-1.1-4-1.2l-.8,6.9Z"></path><path class="st0" d="M55,88.9c0-.4,0-.9,0-1.3l-1.4.2c-.1.7.2,1.8-.8,1.8s-.5-.1-.7-.5c-.3-.7-.5-2.9-.4-3.7.2-1.8,1.8-1.1,1.7.4h1.4c-.1-1.7-.8-2.6-2.5-2.4s-2.1,1.9-2,3.5c0,1.3.3,3.5,1.9,3.6,1.2.1,2.5-.2,2.7-1.7Z"></path><path class="st1" d="M48.6,20c24-1.2,39.8,25.4,26.9,45.9-11.3,18.1-37.5,19-49.9,1.6-13.8-19.4-.6-46.2,23-47.4ZM49,21.1c-21.9.8-35.2,24.9-23.8,43.8,11.2,18.5,38,18.7,49.4.3,12.2-19.6-2.7-45-25.6-44.2Z"></path><path class="st1" d="M86.6,46.3c1.5-.3,1.8,1.9.4,2.1-1.4.2-1.6-1.8-.4-2.1Z"></path><path class="st1" d="M13.2,46.3c1.5-.3,1.8,2,.3,2.1-1.3,0-1.5-1.8-.3-2.1Z"></path><path class="st1" d="M49,21.1c22.9-.9,37.8,24.6,25.6,44.2-11.4,18.4-38.2,18.2-49.4-.3-11.4-18.9,1.9-43,23.8-43.8ZM33.8,34.2h-3.9v19.1h10.7v-3.1h-6.8v-16ZM41,53.3h4l.9-4h5.1s.9,4,.9,4h4l-5-19.1h-4.7s-5.2,19.1-5.2,19.1ZM64.8,34.2h-7.6v19.1h7.6c.7,0,2.2-.5,2.8-.9,2.7-1.7,3.1-7.1,0-8.7-.5-.2-.9-.3-1.4-.5,2.9-.8,3.5-4.5,2.3-6.8-.7-1.3-2.3-2-3.8-2.2ZM49.1,58.8c0-1.5-.8-2.7-2.4-2.9-2.5-.2-4,.8-3.7,3.4.3,2.5,3.3,2.1,4.1,3.3.4.7.1,1.8-.7,1.9-1.3.2-1.7-.6-1.7-1.8h-2c-.2,2.7,1.5,3.5,4,3.2,2.1-.2,3.2-2.5,2.3-4.3s-3.8-1.7-4.1-2.8c-.5-2.1,2.4-2.1,2.1-.1h2ZM38.6,57.7h3.5v-1.6c0-.1-.2-.1-.3-.1-1.7-.2-3.6.2-5.2,0v9.8h5.6v-1.6h-3.6v-2.6h3.2v-1.7h-3.2v-2.2ZM62.5,56h-5.5v9.9h5.6v-1.6h-3.7v-2.6h3.3v-1.7h-3.3v-2.2h3.5v-1.7ZM35.8,56.1h-6.3v1.6h2.2v8.2h2v-8.2h2.2v-1.6ZM56.1,56.1h-6.3v1.6h2.2v8.2h2v-8.2h2.2v-1.6ZM63.7,65.9h3.8c.4,0,1.3-.4,1.6-.7,1.4-1.3,1.3-6.2.5-7.8-.3-.6-1.2-1.3-1.9-1.3h-4.1v9.8Z"></path><path class="st0" d="M64.8,34.2c1.4.1,3.1.8,3.8,2.2,1.2,2.4.6,6.1-2.3,6.8.4.2.9.3,1.4.5,3,1.5,2.6,7,0,8.7-.6.4-2.1.9-2.8.9h-7.6v-19.1h7.6ZM61.1,42h2c.1,0,.8-.2.9-.3,1.7-.7,1.7-3.9,0-4.5-.3-.1-1.1-.3-1.3-.3h-1.6v5ZM61.1,44.7v5.7h.1c0,.1,1.3.1,1.3.1.3,0,1.1-.1,1.4-.2,2.3-.6,2.3-4.5.4-5.3-.2,0-1-.3-1.1-.3h-2.1Z"></path><path class="st0" d="M41,53.3l5.2-19.1h4.7s5,19.1,5,19.1h-4l-.9-4h-5.1s-.9,4-.9,4h-4ZM50.3,46.1l-1.8-8.6-1.8,8.6h3.7Z"></path><polygon class="st0" points="33.8 34.2 33.8 50.2 40.6 50.2 40.6 53.3 29.9 53.3 29.9 34.2 33.8 34.2"></polygon><path class="st0" d="M63.7,65.9v-9.8h4.1c.6,0,1.6.7,1.9,1.3.8,1.6.9,6.5-.5,7.8-.3.3-1.2.7-1.6.7h-3.8ZM65.7,64.4h1.3c.5,0,1-.7,1.1-1.2.2-.8.2-3.7,0-4.6s-.6-1.2-1-1.2h-1.4v6.9Z"></path><path class="st0" d="M49.1,58.8h-2c.3-2-2.6-2-2.1.1.3,1.1,3.4,1.4,4.1,2.8s-.1,4.1-2.3,4.3c-2.4.3-4.1-.5-4-3.2h2c0,1.2.3,2,1.7,1.8.8-.1,1-1.3.7-1.9-.8-1.3-3.8-.8-4.1-3.3-.3-2.6,1.3-3.7,3.7-3.4,1.6.2,2.4,1.3,2.4,2.9Z"></path><path class="st0" d="M38.6,57.7v2.2h3.2v1.7h-3.2v2.6h3.6v1.6h-5.6v-9.8c1.7.1,3.6-.3,5.2,0,.1,0,.2,0,.3.1v1.4h-.1c0,.1-3.4.1-3.4.1Z"></path><polygon class="st0" points="62.5 56 62.5 57.7 59 57.7 59 60 62.3 60 62.3 61.7 59 61.7 59 64.3 62.6 64.3 62.6 65.9 57 65.9 57 56.1 62.5 56"></polygon><polygon class="st0" points="35.8 56.1 35.8 57.7 33.6 57.7 33.6 65.9 31.6 65.9 31.6 57.7 29.5 57.7 29.5 56.1 35.8 56.1"></polygon><polygon class="st0" points="56.1 56.1 56.1 57.7 54 57.7 54 65.9 52 65.9 52 57.7 49.8 57.7 49.8 56.1 56.1 56.1"></polygon><path class="st1" d="M61.1,44.7h2.1c.2,0,1,.2,1.1.3,1.9.8,1.9,4.7-.4,5.3s-1.1.2-1.4.2h-1.5v-5.8Z"></path><g><path class="st1" d="M35.6,16c1.6-.3,1.6,1.9,2.6,2.6,0,0-1.3.7-1.5.6-.9-1.1-.9-3.1-2.7-1.8l1.2,2.7-1.2.5-2.9-6.4c1.4-.4,3.4-2.2,4.6-.5s.6,1.8,0,2.4ZM33.5,16.4c.7-.3,1.4-.5,1.2-1.3-.3-1.1-1.1-1-1.9-.5l.7,1.8Z"></path><path class="st1" d="M17.7,32.2c.2,0,.1-.2.3-.3.9-.7,2.3.9,3.3.7l-.6,1.3c-1.4-.1-2.7-2-3.5.2l2.6,1.3-.5,1.2-6.3-3c.5-1,1.1-3,2.2-3.4s2.7.7,2.4,1.9ZM16.4,33.7c1.3-1.9-1.4-2.9-1.8-.8l1.8.8Z"></path><path class="st1" d="M87.6,34.8c.3,1.4,1.9,3.7,0,4.6-.9.4-1.7.4-2.3-.3.3,1.7-2.1,1.3-2.7,2.3l-.5-1.5c0-.3,2-.7,2.3-1.1.4-.5,0-1,0-1.5l-2.8.9-.5-1.3,6.6-2.2ZM85.1,37.1c.2,2.3,3.1,1.3,1.8-.6l-1.8.6Z"></path><path class="st1" d="M18.5,25.3c1.5-.3,4.3,1.7,4.8,3.1.6,1.4-1,2.7-1.7,3.8l-5.7-4.1c.7-.8,1.5-2.6,2.6-2.8ZM18.5,26.6c-.2,0-.9.8-.8,1,.5.3,3.8,2.9,4,2.7s.5-.8.5-1c0-.6-.8-1.2-1.2-1.5-.6-.5-1.8-1.4-2.5-1.2Z"></path><path class="st1" d="M75.3,18.5c.9.8,2.8,1.9,2.6,3.2s-2.5,3.9-3.8,4.1c-1.3.1-2.4-1.4-3.3-2.1l4.5-5.2ZM75.6,20.2l-3,3.5c-.2.2.4.6.6.7.4.2.6.2,1,0s1.8-1.8,2.1-2.3.3-.6.2-1-.6-1-.9-.9Z"></path><path class="st1" d="M83.6,29.9c1.2-.2,2,.4,2.5,1.5.3.6.3,1.2,0,1.9-.6,1-3.6,2.5-4.7,2.5-1.5,0-2.7-2.2-1.8-3.5.5-.8,3.1-2.2,4.1-2.4ZM80.6,34.3c.5.5,1.7-.2,2.3-.4.8-.4,2.9-1.3,2-2.4s-1.2-.1-1.7,0-2.8,1.3-2.9,1.9.1.7.3.8Z"></path><path class="st1" d="M64.2,14.1l-1.3-.4c.6-2.1-2.6-1.3-1,.4.7.8,1.8,1.2,1.7,2.5-.3,3.4-5.9,1.8-4.5-1.2l1.3.4c0,.3-.2.5-.1.9.2.8,1.6.9,1.7,0s-2.2-1.6-2-3.5,2.2-2.4,3.7-1.3c.8.6.8,1.3.6,2.2Z"></path><path class="st1" d="M29.1,23.6l-2.2-6.9,1.5-.9,5.2,4.8-1.1.8-1.1-1-1.5,1.1.5,1.3-1.2.8ZM29.4,20.2c.2.1,1-.6,1.2-.7l-2.1-2.1,1,2.8Z"></path><path class="st1" d="M71.3,17l-.8,1.4,2,1.2-.5.9-2-1.2-1,1.6,2.1,1.4-.7.9-3.3-2.2,3.7-5.8,3.2,2.1-.5.9c-.1,0-.2,0-.3,0-.3-.1-1.8-1.3-1.9-1.2Z"></path><path class="st1" d="M59.2,10.6l-.2,1.2-2.5-.4-.3,1.6,2.3.4-.2,1.2-2.3-.4c0,.5-.2,1-.3,1.5s0,.3.1.4l2.4.4-.2,1.2-3.9-.7,1.1-6.9,3.9.6Z"></path><path class="st1" d="M24.6,18.8c.9-.1,1.7.5,2.1,1.2.8,1.4,0,2.3-1.1,3.2l1.8,2.1c0,.1-.9,1-1.1.9l-4.5-5.2c.8-.5,1.9-1.9,2.8-2.1ZM25.4,22c1.1-1.2-.9-2.7-1.8-1.2l1.4,1.6c.1-.2.4-.3.5-.4Z"></path><path class="st1" d="M15.2,37.1l.5-.5c.5-.3,1.1-.2,1.6,0,2.4,1,.9,5.1-1.6,4l.4-1.3c.1-.1,1.4.5,1.5-.5s-1.1-1.1-1.7-1-.6.6-.6,1l-.9-.3c0-.6.3-.9-.2-1.3-1.4-1-2.4.6-.8,1.2l-.4,1.2c-1.5-.5-1.8-1.7-1.1-3.1s3.1-1.1,3.2.6Z"></path><polygon class="st1" points="84.1 28.2 83.1 28.8 81.7 26.8 80.4 27.7 81.7 29.7 80.7 30.3 79.4 28.4 76.9 30.2 76.2 29.1 81.8 25 84.1 28.2"></polygon><path class="st1" d="M46,9.7c-.2,1.4-1.1,3.5-1,4.9s.3,1.6.4,2.3l-1.4.3c-.2-.8-.2-2.1-.5-2.8s-1.4-2.1-1.9-2.9-.5-.8-.5-.9l1.5-.2,1.4,2.5.5-2.8,1.5-.3Z"></path><path class="st1" d="M49.8,10.7s-.2,0-.2-.2v-1s4.5,0,4.5,0v1.2s-1.5,0-1.5,0l-.2,5.8h-1.4l.2-5.8c-.4,0-.9,0-1.3,0Z"></path><polygon class="st1" points="40.5 10.6 40.8 11.8 39.3 12.2 40.9 17.8 39.6 18.2 38 12.6 36.5 13 36.2 11.8 40.5 10.6"></polygon><polygon class="st1" points="69.9 14.7 69.3 15.7 67.9 15.1 65.4 20.2 64.2 19.7 66.8 14.5 65.4 13.8 66 12.7 69.9 14.7"></polygon><path class="st1" d="M61.1,42v-5h1.6c.3,0,1.1.2,1.3.3,1.7.6,1.7,3.8,0,4.5-.1,0-.8.3-.9.3h-2Z"></path><polygon class="st1" points="50.3 46.1 46.6 46.1 48.4 37.5 50.3 46.1"></polygon></g><g><path class="st1" d="M30,76.9l-.8,2.8c0,.1,2.1-1.5,2.3-1.5s1,.7,1.3.8l-3.9,2.4-1.6,2.1c-.1,0-1.1-.6-1.1-.8,0-.3,1.4-1.7,1.6-2.2l1-4.3c-.2-.1-.5.5-.6.6-.5.4-1-.7-1.4-.9l-4,4.1-1-.9,4-4.2-1.1-1,.8-.8c1.5,1.3,2.7,2.9,4.5,3.9Z"></path><polygon class="st1" points="66.3 87.2 64.8 87.7 61.6 84 63.2 88.3 61.9 88.8 59.5 82.3 61 81.8 64.3 85.5 62.6 81.2 62.7 81.1 63.8 80.7 66.3 87.2"></polygon><path class="st1" d="M87.1,66.4l-.7,1.4-5-.6,4.3,2.2-.5,1.1-6-2.9.5.6-1.3,2,1.3.8,1.4-1.8.9.7-1.3,1.9,1.6,1,1.4-2.1,1,.7-2.3,3.2-5.7-4c1-1.5,2.3-2.9,3-4.6l4.9.5-3.9-2c-.3-.3.3-.9.4-1.2l6.3,3Z"></path><path class="st1" d="M40.2,82.1l.4,5,1.3-4.5,1.3.3-1.9,6.7c-.3,0-1.5-.3-1.5-.5l-.3-5-1.4,4.6-1.2-.3,1.8-6.6c.2-.2,1.3.3,1.6.3Z"></path><path class="st1" d="M16.8,59.3c-1,.9-4,1.4-5.4,1.1l-.6.8-.9-.5.6-1c-.4-1.1-.7-2.4.4-3.2.9-.7,3.7-1.3,4.9-1.1,1.5.2,2.2,2.9,1,3.9ZM14.8,56.7c-.6,0-3.2.6-3.4,1.2s0,1,.5,1.2c.8.2,4-.5,4.4-1.1s0-1.2-.5-1.3c-.3,0-.7,0-1,0Z"></path><path class="st1" d="M42.7,90l.8-6.9c1.2.1,3.3,0,4,1.2.4.9.2,3.1,0,4.1-.7,2.6-2.6,1.8-4.7,1.6ZM44.7,84.2l-.5,4.7v.2c1.8.4,1.9-1.1,2.1-2.4s.3-2.6-1.5-2.5Z"></path><path class="st1" d="M57.2,82.7c1.5-.2,2.1.6,2.6,2,.5,1.4,1.2,4.2-.6,5-2.1,1-3.1-.2-3.6-2.1s-1.1-4.5,1.6-4.8ZM58,83.9c-.5-.4-1.3-.2-1.4.5s.5,3.6,1,4.2c.5.5,1.3.2,1.4-.4s-.5-3.7-1-4.2Z"></path><path class="st1" d="M18.2,60.8l-5,2c-1,.7-.3,1.8.8,1.4l4.7-1.8.5,1.3c-1.5.4-3,1.2-4.4,1.7-1.3.4-2.2.4-2.8-.9-.7-1.2-.5-2.3.8-3,1.4-.8,3.4-1.2,4.9-1.9l.6,1.3Z"></path><path class="st1" d="M72.6,75c.8-.1,1.3.2,1.8.8l-1,.8c-.2,0-.7-.8-1.4-.2s-.3,1,.2,1.3c.9.6,2.6-1.2,4,0s.9,2.6-.3,3.6c-1.1.9-2.3.7-3-.5l.9-.9c.2,0,.6.8,1.2.6.8-.2.9-1.2.2-1.7-.9-.6-2.5,1.2-3.9,0-.6-.4-1-1.2-.9-2s1.3-1.9,2-2Z"></path><path class="st1" d="M37.2,81l-1.1,7.2-1.3-.6.2-1.5c0-.1-1.6-.8-1.8-.8l-.9,1.1-1.2-.5v-.3s4.3-5.3,4.3-5.3c.3-.2,1.3.5,1.6.6ZM35.3,85l.5-3-1.8,2.5,1.3.6Z"></path><path class="st1" d="M66.2,84.8l1.3-.6c.2.8.8,1.2,1.5.6.5-.3.3-1.2-.2-1.5-.8-.4-2.2.4-3.2-.4-.5-.3-.9-1.2-.9-1.8,0-1.6,2.7-2.9,3.8-1.5.7.9-.1.8-.8,1.2-.2,0-.3-.6-.8-.6-.9,0-1.1,1-.4,1.5.8.6,2.7-.6,3.8.8s.4,2.7-1.1,3.4c-1.5.7-2.3.2-3-1.2Z"></path><path class="st1" d="M13.7,68.2l-.5-1.3,7-1.4.8,1.5-5.3,4.7c-.2,0-.6-1-.7-1.2l1.1-1c0,0-.6-1.4-.7-1.5s0-.2-.2-.1l-1.4.3ZM19.3,66.9l-2.9.6c0,0,.4,1,.5,1.2s.2,0,.3,0c.7-.5,1.4-1.2,2.1-1.7Z"></path><path class="st1" d="M84.6,59.7l-.4,1.3c-.1,0-1.6-.6-1.7.5,0,.7.9,1,1.5,1.2.7.3,2.4.8,3.1.7.4,0,.6-.6.5-1-.2-.5-.9-.6-1.3-.8s.3-1.1.2-1.4c1.8.5,2.8,1.8,1.8,3.6-.8,1.4-2.4,1-3.6.6-1.9-.5-3.9-1.3-2.9-3.7.5-1.3,1.6-1.5,2.9-1.1Z"></path><path class="st1" d="M55,88.9c-.2,1.4-1.5,1.8-2.7,1.7-1.7-.2-1.9-2.3-1.9-3.6,0-1.7,0-3.4,2-3.5s2.3.7,2.5,2.3h-1.4c.1-1.4-1.5-2.1-1.7-.3s.1,3,.4,3.7c.2.3.3.5.7.5,1,0,.7-1.1.8-1.8l1.4-.2c0,.4,0,.9,0,1.3Z"></path><polygon class="st1" points="89.9 57.3 89.6 58.7 87 58.2 82.5 59.1 82.7 57.6 85.5 57.1 83.1 55.7 83.4 54.2 87.2 56.8 89.9 57.3"></polygon><path class="st1" d="M75,74c0,0-.6.9-.9,1l-.8-.7,3.1-3.2.8.8c-.1.3-1.1.9-.9,1.1l4.1,4-.9.9-4-3.9c0,0-.2-.1-.3,0Z"></path><path class="st1" d="M18.3,75.4l-2-3v-.3s5.6-3.9,5.6-3.9l.7,1.1-4.7,3.4,1.3,2c0,.2-.8.7-1,.6Z"></path><polygon class="st1" points="69.3 77.4 73.4 83.1 72.3 83.9 72.1 83.8 68.2 78.3 69.3 77.4"></polygon><polygon class="st1" points="24.3 71.8 25.2 72.7 25.2 72.9 20 77.3 19.1 76.2 24.3 71.8"></polygon><path class="st1" d="M65.7,64.4v-6.9h1.4c.4,0,.9.8,1,1.2.2.8.2,3.7,0,4.6s-.6,1.2-1.1,1.2h-1.3Z"></path></g></svg> 