<?xml version="1.0" encoding="UTF-8"?> <svg xmlns="http://www.w3.org/2000/svg" xmlns:xlink="http://www.w3.org/1999/xlink" id="Layer_1" version="1.1" viewBox="0 0 100 100"><defs><style> .st0 { fill: #0054a8; fill-rule: evenodd; } .st1 { fill: #fff; } </style></defs><path class="st0" d="M93.3,44.6c0,.4-.3.8-.7,1-.1,0-.3.1-.4.1,0,.5-.4.9-.8,1.1-.5.3-1.2.3-1.9.3-.9,0-2.1.1-2.9.4-.8,1.1.6,1.6,1.3.6.7.3,1.7.9,1.1,1.8,0,0-.1.2-.2.3-.1.3-.1.6-.1.9,0,.4,0,.7-.1,1.1-.1.3-.3.5-.5.6-.4.2-.8.1-1.2,0-.2,0-.4,0-.5,0h-.2s0-.2,0-.2c0-.2,0-.4,0-.5,0,0,0-.2,0-.2,0,0,0,0,0,0,0,0-.1,0-.2-.1h0c-.1,0-.2-.1-.3-.1h0,0c0-.4,0-.8-.2-1.2,0-.3-.2-.5-.4-.8-.2-.2-.4-.5-.6-.7-.2-.2-.4-.4-.7-.5-.2-.2-.4-.3-.7-.5-.2-.2-.4-.4-.5-.6,0-.1-.1-.2-.2-.3,0-.1-.1-.2-.2-.4,0-.2-.1-.5-.2-.8,0-.3,0-.5,0-.8,0-.5.3-1.1.5-1.6.2-.5.4-1.1.6-1.6.2-.6.2-1.2.1-1.7,0,.6-.1,1.1-.3,1.6-.2.5-.5,1-.7,1.5-.2.5-.5,1.1-.6,1.6,0,.3,0,.6,0,.9,0,.3,0,.6.2.9,0,.1.1.3.2.4,0,.1.2.3.2.4.2.2.4.5.6.6.5.4.9.7,1.4,1,.4.3.8.8,1,1.3.2.4.3.8.4,1.1h0c0,.2,0,.3.1.5.1.5.2.9-.5,1.6-.2.2-.4.3-.6.5-.1,0-.2.1-.3.2-.2.2-.3.3-.5.6,0,0,0,0,0,0v.6s-.4-.4-.4-.4c-.4-.3-.6-.8-.8-1.2-.1-.3-.3-.6-.4-.8-.2.6-.7,1.2-1,1.5-.2.2-.3.3-.5.5-.3.3-.5.5-.8.8l-.3.3v-.4c-.2-.2-.2-.5-.2-.9,0-.1,0-.2,0-.4h0s0,0,0,0c0-.3.2-.6.2-.9,0-.5,0-1.1-.2-1.7,0-.1-.1-.3-.2-.4,0-.1-.1-.2-.2-.4-.1-.2-.3-.5-.5-.7-.3-.4-.7-.9-1.1-1.3-.7-.8-1.6-1.5-2.5-2.2l-1.3-1c-.2-.2-.4-.3-.6-.5l-.6-.5c-.8-.7-1.7-1.4-2.3-2.2-.3-.4-.6-.9-.8-1.4-.2-.5-.3-1-.4-1.5,0-.5,0-1.1,0-1.6,0-.3,0-.5,0-.8,0-.3.1-.5.2-.8.2-.5.4-1,.8-1.4.3-.4.8-.7,1.3-.9-.3,0-.5.2-.8.3-.2.1-.5.3-.7.5-.4.4-.7.9-.9,1.4-.1.3-.2.5-.2.8,0,.3-.1.5-.1.8,0,.5,0,1.1,0,1.7,0,.6.2,1.1.3,1.6.2.5.5,1,.8,1.5.3.5.7.9,1.1,1.3.4.4.8.7,1.3,1.1l.6.5c.2.2.4.3.6.5l1.3,1c.4.3.9.7,1.3,1,.4.3.8.7,1.2,1.1.4.4.7.8,1.1,1.2.2.2.3.4.5.7.1.2.3.5.4.7.2.5.3,1,.2,1.6,0,.3,0,.5-.1.8,0,0,0,0,0,0h0s0,0,0,0c-.2.3-.3.7-.4,1.1-.2.5-.3,1-.7,1.5-.2.2-.4.4-.7.6,0,0-.2.2-.3.2,0,0-.2.1-.3.2,0,0,0,0,0,.2v-.2s0,0,0,0c0,0-.1,0-.2,0-.3.1-.5.2-.8.3-.1,0-.3,0-.4.1,0,0,0,0,0,0,.2-.3.4-.6.5-1,.1-.5.2-1,.1-1.4,0-.5-.2-.9-.4-1.4-.2-.4-.4-.9-.7-1.3-.1-.2-.3-.4-.5-.6-.2-.2-.3-.3-.5-.5-.3-.3-.7-.6-1.1-.9-.7-.6-1.5-1.1-2.3-1.6-.7-.6-1.4-1.2-2-1.9-.1-.2-.3-.4-.4-.6-.1-.2-.2-.4-.3-.6-.2-.4-.4-.8-.5-1.3-.1-.4-.3-.9-.3-1.3,0-.4-.1-.9-.2-1.4,0-.9,0-1.8.3-2.7-.3.9-.5,1.8-.5,2.7,0,.5,0,.9,0,1.4,0,.5.2.9.3,1.4.1.5.3.9.5,1.3,0,.2.2.4.3.6.1.2.2.4.4.6.3.4.6.7.9,1.1.3.3.7.6,1.1.9.7.6,1.5,1.1,2.3,1.6.3.2.5.4,1.1.9.2.2.3.3.5.5.2.2.3.3.4.5.3.4.5.8.7,1.2.2.4.3.8.4,1.3,0,.4,0,.9,0,1.3-.1.4-.3.8-.6,1.1l-.2.2h.3c.2,0,.3,0,.4-.1.1,0,.3,0,.4-.1.3-.1.5-.2.8-.4,0,0,.1,0,.2,0h0c0,.1,0,.2,0,.4.1.5.2,1.1.3,1.6,0,.4.1.9.2,1.3.1.6.5,1.1.9,1.7.5.7,1,1.4,1,2.2.3,0,.9.1,1.2.2.4,0,.5,0,.6,0,.6.2.7.2.9.6,0,0,0,.2.2.4,0,0,0,.1.1.2.2.2.3.5.4.8,0,.4,0,.8-.2,1-.3.4-.9.6-1.8.6s-.7,0-1,0h-.2c-.2,0-.5,0-.8,0-.6,0-1.2,0-1.7-.1-1-.2-1.1-.8-1.3-1.4,0-.2,0-.4-.2-.6-.2-.4-.5-.6-1-.9-.4-.2-.9-.5-1.1-.9-.1-.2-.2-.4-.3-.6-.1-.3-.2-.5-.5-.8-.2-.2-.4-.4-.6-.6-.3-.3-.7-.6-1-.9-.6-.8-1.3-1.8-1.8-2.9,0-.1,0-.2-.1-.3h0c-.3-.3-.6-.6-1-.8,0,0-.1,0-.2,0,0,0,0,0,0,0-.2,0-.3,0-.5,0-1.1,0-2-.4-2.8-1.1-.1-.1-.2-.2-.3-.4-.2-.2-.3-.4-.5-.5h0s0,0,0,0h0s0,0,0,0c0,0,0,0,0,0,0,0,0,0,0,0,0,0,0,0,0,0,.2-.1.4-.2.6-.3.2-.1.5-.2.7-.3.2-.1.5-.2.7-.4.5-.3.9-.7,1.2-1.2.3-.5.5-1,.5-1.5-.3.5-.5.9-.8,1.3-.3.4-.7.7-1.1,1-.4.3-.9.5-1.4.8-.2.1-.5.3-.7.5h0s-.1,0-.2.2h0s0,0,0,0c-.3.2-.6.7-.8,1,0,0,0,.1-.1.2-.4.5-.7,1.1-1,1.7-.3.6-.6,1.2-1,1.8-.2.2-.3.5-.5.7-.4.6-.9,1.2-1.2,1.9-.3.5-.4,1-.5,1.4,0,.5,0,.7,0,.8,0,0,.2,0,.2,0,.3,0,.5.3.6.4.1.1.1.3.2.4,0,0,0,0,0,.1,0,0,0,0,.1,0,0,0,0,0,.1,0,.2,0,.4.1.6.2h0c.3.2.8.3,1,.7.2.4.2.7,0,1-.2.5-.9.6-1.4.8-.6.1-1.5.3-2.4.3s-1.5-.1-2-.3c-.4-.2-1.2-.6-1.3-1.1-.2-.5,0-.9.2-1.2,0-.1.1-.2.2-.3,0-.2,0-.3,0-.3,0,0,0,0,0,0-.1,0-.3-.1-.5-.3-.5-.5-.3-1.4-.2-1.6.1-.5.3-.8.5-1.2.3-.6.5-1.1.5-1.8,0-1.2.4-2.3.7-3.4.2-.6.4-1.3.5-1.9,0-.5,0-.6,0-.7,0,0-.2,0-.4,0s-.3,0-.6,0c-.4,0-.9,0-1.4,0s-.8,0-1.2,0c-.1,0-.3,0-.4,0-.3,0-.7,0-1.1,0-.7-.1-1.4-.4-2.1-.7-.4-.2-.7-.3-1.1-.4-.2,0-.5-.2-.7-.3-.6-.2-1.2-.5-1.7-.5h0c-.5,0-.8.4-1.1.9,0,.1-.2.3-.3.4-.3.4-.5.8-.6,1.3,0,.3-.1.5-.2.8-.2.9-.3,1.9-.8,2.8-.1.2-.3.4-.4.6-.4.6-.8,1.2-.6,2,.1.7.8,1.3,1.5,1.8.2.2.5.4.7.6.8.8,1.4,1,2.5,1s.2,0,.3,0c.1,0,.2,0,.3,0,.1,0,.3,0,.4,0,.3,0,.7,0,1.1.5.3.3.7,1,.7,1.5,0,1-1.4,1.1-2.3,1.1-.3,0-.5,0-.7,0-.2,0-.4,0-.6,0-.6.1-1.2.2-1.9.2s-.5,0-.8,0c-.7-.1-.9-.4-1.1-.7,0,0-.2-.2-.3-.3-.3-.4-.7-.6-1.1-.8,0,0-.2,0-.2-.1-1-.5-1.7-1.2-2.5-1.9-.2-.2-.4-.3-.6-.5-.6-.5-1.4-1.2-1.8-1.8-.5-.7-.3-1.6-.2-2.4,0-.3,0-.6.1-.8,0-1.3,0-2.3-.5-3.2h0c-.1-.3-.3-.7-.5-.8,0,0,0,0,0,0h0c0,0-.1,0-.2.2-.1.2-.3.4-.5.5-.5.2-1,.3-1.5.4-.6,0-1.1.2-1.5.5-.3.2-.5.4-.7.7-.4.7-1.1,1.5-1.7,1.7-.3.1-.5.2-.8.3,0,0,0,0,0,0-.4.1-.8.3-1.1.5-.5.4-.8.9-1.1,1.5-.2.4-.3.8-.4,1.3,0,.2,0,.4-.1.7,0,0,0,.2,0,.3-.1.6-.3,1.1-.1,1.6.2,0,.3,0,.5-.1.2,0,.5-.2.9-.2.6,0,1.2.5,1.6.8.5.3.8,1,.8,1.6,0,.5-.2.9-.5,1.2-.3.3-1,.3-1.5.4-.1,0-.2,0-.3,0-.5,0-1.1.1-1.6.1,0,0-.1,0-.2,0-1,0-2.3,0-2.7-1.1-.2-.5-.3-.9-.4-1.4-.1-.7-.3-1.4-.8-2-.6-.9-.5-1.7-.4-2.5,0-.2,0-.3,0-.5,0-.6.1-1.2,0-1.7,0-.1,0-.3-.1-.5-.1-.4-.3-.8-.2-1.1.2-.8.9-1,1.5-1.2.3-.1.6-.2.9-.4-.2-1.7.5-3.4,1.2-4.8.2-.4.3-.9.5-1.4.3-.8.5-1.6,1-2.3l.2-.2c.5-.8,1.1-1.6,1.6-2.4,0-.1.1-.2.2-.3.3-.5.6-.9.7-1.4.3-.7.6-1.3.9-1.9-.7,0-2.1,0-4.7,0-2.5,0-5.4,0-5.9.1-1.7.3-5.7,1.2-7.2,4.4-.6,1.1-.9,3-.2,4.3.5,1,2.1,2.6,3.1,2.7.1,0,.3,0,.4,0,1.3.1,2.1.2,3.3,1,.8.5,1.7,1.4,2.7,2.5l.3.3h-.4c-1.1.4-2.2.7-3.3.7s-1.5-.1-2.2-.4c-.9-.4-1.4-.6-1.8-1.5,0,0,0-.2,0-.5,0-.1,0-.4,0-.5-1.8-.7-3.1-1.7-3.8-3.3-.6-1.4-.8-3.1-.4-5,.3-1.5,1.1-2.8,2.2-3.7,4.2-3.4,9-3.6,14.1-3.9h.7c2.2-.1,3.9-.5,6-1.2,2.3-.8,4.3-1.5,6.5-1.6h0c.6,0,1.2,0,1.8,0,1.9,0,3.7.1,5.6.2,1.8.1,3.7.2,5.5.2s.5,0,.7,0c2.4,0,4.8-.4,7.1-.8,1-.2,2-.3,3-.5h.1c1.3-.2,2.6-.5,4-.8,0,0,0,0,.1,0,0,0,0,0,0,0h0c0,0-.1.1-.2.2-.2.2-.4.4-.6.6-.2.2-.3.4-.5.6-.2.2-.3.4-.4.7-.1.2-.2.5-.3.7,0,.2-.2.5-.2.8,0,.1,0,.3,0,.4v.4c-.2,1-.4,2-.8,2.9-.2.5-.5.9-.9,1.2-.2.2-.4.3-.6.4-.2,0-.5.1-.8.1.3,0,.5,0,.8,0,.3,0,.5-.2.7-.3.2-.1.4-.3.6-.5.2-.2.3-.4.4-.7.3-.5.4-1,.6-1.5,0-.3.1-.5.2-.8,0-.3.1-.5.1-.8v-.4c0-.1.1-.2.1-.4,0-.2.1-.5.2-.7,0-.2.2-.5.3-.7.1-.2.2-.4.3-.7.1-.2.3-.4.4-.6.1-.2.3-.4.5-.6.1-.1.3-.3.4-.4h0s0,0,0,0c.1-.1.3-.2.4-.3,0,0,.2,0,.3-.1.4-.2.6-.5.8-.8.1-.2.2-.4.4-.5.3-.4.7-.8,1.2-1,.2,0,.3-.1.5-.2.7-.2,1.4-.4,2.1-.3.1,0,.2,0,.3,0,.4,0,.9,0,1.4.1.4.1.7,0,1.2-.1.3-.1.5-.3.8-.4.2,0,.3-.2.5-.2.9-.4,1.9-.9,3.1-.6.6.1,1.2,0,1.8,0,0,0,0,0,.1,0h0c.6,0,1.2-.2,1.8-.1.5,0,.9.2,1.4.6.2.2.3.4.4.6,0,.1.2.3.2.4.1,0,.3.1.5.2.3,0,.6.1.9.3.5.3.8.9,1.1,1.5,0,.2.1.4.2.7.2.9.3,1.3,1,1.2,0,0,.1,0,.2,0,.2,0,.4-.3.5-.5l.4-.6v.7c.1.6,0,1.1-.5,1.4.3.3.7.6,1.1,1.1.1.2.2.4.3.6,0,0,0,.1.1.2h0c0,.2.1.4.2.6,0,.2,0,.3,0,.4,0,0,0,0,0,0,0,0,.1.2.2.3.2.2.4.5.6.7,0,0,.1.1.2.2.3.3.5.6.7.8.4.5.9,1,1.4,1.6,0,0,.1.1.2.2.3.3.7.6.6,1.2h0ZM63.3,56.4s0,0,0,0h0s0,0,0,0c0,0,0,0,0,0h0ZM85.8,37.4c-.3.1-.6.2-.9.2-.6.1-1.3.1-1.9.3-.2,0-.3.1-.5.2-.2,0-.3.2-.4.3-.3.2-.5.5-.6.8,0,.2-.1.3-.1.5,0,.2,0,.4,0,.5,0,.2.1.3.2.5.1.1.3.2.4.3-.1-.1-.2-.2-.3-.4,0-.1-.1-.3-.1-.4,0-.3,0-.6.2-.8.1-.3.3-.5.5-.7.2-.2.5-.3.8-.4.6-.2,1.2-.3,1.8-.4.3,0,.6-.2.9-.4.3-.2.5-.4.7-.7-.2.2-.5.4-.8.5h0ZM33.2,55.6s2.6-4.7,7.4-4.9c0,0-5-.8-7.4,4.9h0ZM41.3,47.8c0-1.4.2-2.6-.5-4.2-.1-.3-.3-.4-.5-.6,1.1.9.3,3.2.8,6,.5,2.8,3.8,4.4,3.8,4.4-.5-.4-1-.8-1.5-1.3-1.2-1.2-2.1-2.6-2.1-4.3h0ZM56.7,51.9c-.2.3-.3.6-.3,1-.1.7-.1,1.3,0,2,0,0,0,.2,0,.2,0,0,0,.2,0,.2,0,.2,0,.3,0,.5,0,.3,0,.6,0,.9,0,.6-.2,1.3-.2,1.9.2-.6.5-1.2.6-1.9,0-.3.1-.7.1-1,0-.2,0-.3,0-.5,0,0,0-.2,0-.3,0,0,0-.2,0-.2,0-.6-.1-1.3,0-1.9,0-.3,0-.6.2-.9.1-.3.3-.6.6-.7-.2,0-.3.1-.4.2-.1.1-.2.3-.3.4h0Z"></path><polygon class="st1" points="33.8 51.3 33.8 47.9 33.4 49.5 32 49.5 31.6 47.9 31.6 51.3 30.2 51.3 30.2 43.5 31.6 43.5 32.7 47 33.8 43.5 35.3 43.5 35.3 51.3 33.8 51.3 33.8 51.3"></polygon><path class="st1" d="M35.3,43.4h-1.5c0,0-1,3.4-1,3.4l-1-3.3h0c0,0,0,0,0,0h-1.4v7.8h0c0,.1.1.1.1.1h1.4v-2.9l.3,1h0c0,0,0,0,0,0h1.4c0,0,.3-1.1.3-1.1v2.8h0c0,.1.1.1.1.1h1.4v-7.8h0ZM35.2,43.6v7.6h-1.3v-3.8l-.5,1.9h-1.3l-.5-1.9v3.8h-1.3v-7.6h1.3l1.2,3.7,1.2-3.7h1.3Z"></path><path class="st1" d="M38.3,44.9h-.8v2.6h.8v-2.6h0ZM38.3,51.3v-2.3h-.8v2.3h-1.4v-6.9c0-.5.4-.9.9-.9h2c.5,0,.9.4.9.9v6.9h-1.4Z"></path><path class="st1" d="M37.5,45h.7v2.5h-.7v-2.5h0ZM38.8,43.4h-2c-.5,0-.9.4-.9.9v6.8h0c0,.1.1.1.1.1h1.4v-2.3h.7v2.1h0c0,.1.1.1.1.1h1.4v-7c0-.5-.4-.9-.9-.9h0ZM37.4,47.6h.9v-2.7h-.9v2.7h0ZM38.8,43.6c.4,0,.8.4.8.8v6.8h-1.3v-2.3h-.9v2.3h-1.3v-6.8c0-.4.4-.8.8-.8h2Z"></path><polygon class="st1" points="42.8 51.3 42.8 51.2 41.8 48.1 41.8 48.1 41.8 51.3 40.4 51.3 40.4 43.5 41.8 43.5 41.8 46.6 42.8 43.5 44.2 43.5 43 47.4 44.2 51.3 42.8 51.3 42.8 51.3"></polygon><path class="st1" d="M44.3,43.4h-1.6c0,0-.9,2.8-.9,2.8v-2.7h0c0-.1-.1-.1-.1-.1h-1.4v7.8h0c0,.1.1.1.1.1h1.4v-2.9l.9,2.7h0s0,.1,0,.1h1.6v-.2c0,0-1.3-3.8-1.3-3.8l1.2-3.8v-.2h0ZM44.2,43.6l-1.2,3.8,1.2,3.8h-1.3s-1-3.2-1-3.2h-.1v3.2h-1.3v-7.6h1.3v3.2h0l1-3.2h1.3Z"></path><polygon class="st1" points="44.5 51.3 44.5 43.5 48.2 43.5 48.2 44.9 45.9 44.9 45.9 46.7 47.7 46.7 47.7 48.1 45.9 48.1 45.9 49.8 48.2 49.8 48.2 51.3 44.5 51.3 44.5 51.3"></polygon><path class="st1" d="M48.3,43.4h-3.8v7.8h0c0,.1.1.1.1.1h3.7v-1.4h0c0-.1-.1-.1-.1-.1h-2.1v-1.6h1.8v-1.4h0c0-.1-.1-.1-.1-.1h-1.7v-1.6h2.3v-1.4h0ZM48.1,43.6v1.3h-2.3v1.8h1.8v1.3h-1.8v1.9h2.3v1.3h-3.6v-7.6h3.6Z"></path><polygon class="st1" points="50.5 43.5 52 43.5 52 51.3 50.5 51.3 50.5 43.5 50.5 43.5"></polygon><path class="st1" d="M52,43.4h-1.6v7.8h0c0,.1.1.1.1.1h1.4v-7.8h0ZM51.9,51.2h-1.3v-7.6h1.3v7.6h0Z"></path><polygon class="st1" points="54.9 51.3 54 48.3 54 51.3 52.6 51.3 52.6 43.5 54 43.5 54.9 46.3 54.9 43.5 56.3 43.5 56.3 51.3 54.9 51.3 54.9 51.3"></polygon><path class="st1" d="M56.4,43.4h-1.6v2.4l-.7-2.3h0c0,0,0,0,0,0h-1.4v7.8h0c0,.1.1.1.1.1h1.4v-2.6l.7,2.5h0c0,0,0,0,0,0h1.4v-7.8h0ZM56.2,43.6v7.6h-1.3l-1-3.3v3.3h-1.3v-7.6h1.3l1,3.1v-3.1h1.3Z"></path><polygon class="st1" points="58.9 43.5 60.3 43.5 60.3 51.3 58.9 51.3 58.9 43.5 58.9 43.5"></polygon><path class="st1" d="M60.4,43.4h-1.6v7.8h0c0,.1.1.1.1.1h1.4v-7.8h0ZM60.3,51.2h-1.3v-7.6h1.3v7.6h0Z"></path><polygon class="st1" points="63.3 51.3 62.4 48.3 62.4 51.3 61 51.3 61 43.5 62.4 43.5 63.2 46.3 63.2 43.5 64.7 43.5 64.7 51.3 63.3 51.3 63.3 51.3"></polygon><path class="st1" d="M64.7,43.4h-1.6v2.4l-.7-2.3h0c0,0,0,0,0,0h-1.4v7.8h0c0,.1.1.1.1.1h1.4v-2.6l.7,2.5h0c0,0,0,0,0,0h1.4v-7.8h0ZM64.6,43.6v7.6h-1.3l-1-3.3v3.3h-1.3v-7.6h1.3l1,3.1v-3.1h1.3Z"></path><path class="st1" d="M67.6,44.9h-.8v4.9h.8v-4.9h0ZM65.3,51.3v-7.8h2.8c.5,0,.9.4.9.9v6c0,.5-.4.9-.9.9h-2.8Z"></path><path class="st1" d="M66.8,45h.7v4.8h-.7v-4.8h0ZM68.2,43.4h-2.9v7.8h0c0,.1.1.1.1.1h2.8c.5,0,.9-.4.9-.9v-6c0-.5-.4-.9-.9-.9h0ZM66.7,49.9h.9v-5h-.9v5h0ZM68.2,43.6c.4,0,.8.4.8.8v6c0,.4-.4.8-.8.8h-2.8v-7.6h2.8Z"></path><polygon class="st1" points="69.8 43.5 71.2 43.5 71.2 51.3 69.8 51.3 69.8 43.5 69.8 43.5"></polygon><path class="st1" d="M71.3,43.4h-1.6v7.8h0c0,.1.1.1.1.1h1.4v-7.8h0ZM71.1,51.2h-1.3v-7.6h1.3v7.6h0Z"></path><path class="st1" d="M74.1,44.9h-.8v2.6h.8v-2.6h0ZM74.1,51.3v-2.3h-.8v2.3h-1.4v-6.9c0-.5.4-.9.9-.9h2c.5,0,.9.4.9.9v6.9h-1.4Z"></path><path class="st1" d="M73.3,45h.7v2.5h-.7v-2.5h0ZM74.7,43.4h-2c-.5,0-.9.4-.9.9v6.8h0c0,.1.1.1.1.1h1.4v-2.3h.7v2.1h0c0,.1.1.1.1.1h1.4v-7c0-.5-.4-.9-.9-.9h0ZM73.2,47.6h.9v-2.7h-.9v2.7h0ZM74.7,43.6c.4,0,.8.4.8.8v6.8h-1.3v-2.3h-.9v2.3h-1.3v-6.8c0-.4.4-.8.8-.8h2Z"></path></svg> 